<?xml version="1.0" encoding="UTF-8"?>
<svg version="1.1" xmlns="http://www.w3.org/2000/svg" width="2135" height="749">
<path d="M0 0 C2.42188081 -0.00390098 4.84376096 -0.00823844 7.26564026 -0.01298523 C12.27631889 -0.02035481 17.28692688 -0.02021868 22.29760742 -0.01489258 C28.72450469 -0.00902176 35.15112083 -0.02625402 41.57797146 -0.04923725 C46.54921661 -0.06391597 51.52039237 -0.06485584 56.49165535 -0.06172752 C58.86439649 -0.06224082 61.2371415 -0.06748003 63.60986137 -0.07753944 C66.89952528 -0.08981091 70.18861747 -0.08317513 73.47827148 -0.0715332 C74.45521973 -0.07917694 75.43216797 -0.08682068 76.4387207 -0.09469604 C77.33082748 -0.08768173 78.22293427 -0.08066742 79.14207458 -0.07344055 C79.91671775 -0.07360829 80.69136091 -0.07377604 81.48947811 -0.07394886 C84.04754938 0.40191142 84.93618881 1.2582427 86.50390625 3.30078125 C89.87570127 25.88818226 83.21692438 55.95450978 70.00366211 74.58251953 C59.14608465 88.96737796 45.26966213 95.94206065 28.50390625 101.30078125 C29.71304688 101.66429687 30.9221875 102.0278125 32.16796875 102.40234375 C51.83436603 108.39908212 73.09194193 115.15565689 83.87890625 134.17578125 C86.77900232 140.55099243 87.35022466 147.60538147 85.27734375 154.30859375 C80.21309008 167.35288351 69.89896095 175.34400135 57.50390625 181.30078125 C10.80193762 201.34036596 -47.63584758 202.29587326 -95.10253906 184.27148438 C-109.36533112 178.4872268 -122.92348812 170.51825176 -129.54595947 155.9990387 C-132.37913419 147.95319195 -131.66202719 138.38226289 -131.69921875 129.9296875 C-131.70776886 128.3651609 -131.70776886 128.3651609 -131.7164917 126.76902771 C-131.72586709 124.57495107 -131.73244563 122.38086082 -131.73632812 120.18676758 C-131.74597926 116.90224342 -131.77705348 113.618361 -131.80859375 110.33398438 C-131.95683991 80.80409861 -128.1972699 48.42333946 -106.49609375 26.30078125 C-102.98673632 23.05899946 -99.35268993 20.11863806 -95.49609375 17.30078125 C-94.74070312 16.74648437 -93.9853125 16.1921875 -93.20703125 15.62109375 C-66.99985575 -1.76029756 -29.99601778 -0.02054362 0 0 Z M-92.49609375 29.30078125 C-93.1303125 29.73777344 -93.76453125 30.17476562 -94.41796875 30.625 C-110.05622002 42.56889374 -116.65023572 64.64993824 -119.25390625 83.3046875 C-119.75220496 87.29679069 -120.15224161 91.29259434 -120.49609375 95.30078125 C-117.93889135 92.79361107 -115.54727512 90.23070856 -113.24609375 87.48828125 C-92.34149267 63.72906028 -59.79257231 59.99021487 -30.28125 54.61328125 C22.14711509 45.67252376 22.14711509 45.67252376 64.65307617 15.6640625 C65.18841476 15.03411377 65.72375336 14.40416504 66.27531433 13.75512695 C66.68074966 13.27519287 67.086185 12.79525879 67.50390625 12.30078125 C47.50442445 11.93265632 27.50466509 11.59170774 7.50390625 11.30078125 C6.53110718 11.2866217 5.55830811 11.27246216 4.55603027 11.25787354 C-46.4131331 10.0600049 -46.4131331 10.0600049 -92.49609375 29.30078125 Z M73.50390625 22.30078125 C72.40597635 23.43263595 71.32646261 24.58235392 70.25390625 25.73828125 C53.50725515 42.60391389 30.03215041 51.59759985 7.4140625 57.23046875 C6.37798859 57.48872437 5.34191467 57.74697998 4.27444458 58.01306152 C-8.11802828 61.03108995 -20.65461048 63.17629334 -33.21972656 65.33251953 C-44.4159951 67.2656501 -55.48782816 69.37529548 -66.46484375 72.33203125 C-67.34572662 72.56716431 -68.2266095 72.80229736 -69.13418579 73.04455566 C-80.46132455 76.21706375 -91.65745208 81.41879256 -100.49609375 89.30078125 C-101.09550781 89.82027344 -101.69492187 90.33976562 -102.3125 90.875 C-110.60336128 98.55702914 -115.17842219 108.30382931 -117.49609375 119.30078125 C-117.16609375 119.96078125 -116.83609375 120.62078125 -116.49609375 121.30078125 C-115.5834375 120.66462891 -115.5834375 120.66462891 -114.65234375 120.015625 C-86.55421265 101.21466963 -53.58915214 98.53902591 -20.76635742 96.37231445 C-8.257649 95.54110232 4.15955229 94.57854233 16.50390625 92.30078125 C17.57801758 92.10645508 17.57801758 92.10645508 18.67382812 91.90820312 C35.72023319 88.66797737 50.92475692 81.47350762 61.19140625 67.17578125 C69.48284413 54.94302777 75.33531818 37.32778199 74.50390625 22.30078125 C74.17390625 22.30078125 73.84390625 22.30078125 73.50390625 22.30078125 Z M-50.31640625 120.03125 C-56.364518 126.67201592 -58.37557267 132.33661264 -59.49609375 141.30078125 C-48.93609375 141.30078125 -38.37609375 141.30078125 -27.49609375 141.30078125 C-27.49609375 130.41078125 -27.49609375 119.52078125 -27.49609375 108.30078125 C-36.17524472 108.30078125 -44.3433168 114.35296969 -50.31640625 120.03125 Z M-16.49609375 109.30078125 C-16.49609375 119.86078125 -16.49609375 130.42078125 -16.49609375 141.30078125 C-6.26609375 141.30078125 3.96390625 141.30078125 14.50390625 141.30078125 C13.12282538 130.25213431 9.44637345 123.03597251 0.80078125 115.95703125 C-5.10168552 111.70083072 -9.12888448 110.35323972 -16.49609375 109.30078125 Z M13.50390625 111.30078125 C13.9628125 111.97882813 14.42171875 112.656875 14.89453125 113.35546875 C21.00653565 122.62619811 24.08451818 130.41353492 26.50390625 141.30078125 C42.01390625 141.30078125 57.52390625 141.30078125 73.50390625 141.30078125 C69.11124396 130.31912553 58.95890157 125.12586394 48.57519531 120.42822266 C37.82781193 115.84501861 25.26787062 111.30078125 13.50390625 111.30078125 Z M-112.890625 132.484375 C-115.50436364 135.38557165 -117.25418985 137.57506954 -118.49609375 141.30078125 C-102.98609375 141.30078125 -87.47609375 141.30078125 -71.49609375 141.30078125 C-70.17609375 136.35078125 -68.85609375 131.40078125 -67.49609375 126.30078125 C-65.89623724 123.06107181 -64.4518106 120.26211907 -62.49609375 117.30078125 C-62.09777344 116.68203125 -61.69945312 116.06328125 -61.2890625 115.42578125 C-60.37912493 114.03675993 -59.44128515 112.66605771 -58.49609375 111.30078125 C-76.00490682 111.30078125 -99.96091029 120.69365637 -112.890625 132.484375 Z M-117.49609375 153.30078125 C-105.94287248 170.63061315 -83.82061176 176.66680383 -64.421875 180.91796875 C-61.68490234 181.27607732 -60.06519542 181.21340618 -57.49609375 180.30078125 C-58.38296875 179.35203125 -59.26984375 178.40328125 -60.18359375 177.42578125 C-66.3835735 170.15835215 -68.75188243 162.44815231 -71.49609375 153.30078125 C-86.67609375 153.30078125 -101.85609375 153.30078125 -117.49609375 153.30078125 Z M-59.49609375 153.30078125 C-55.9233449 165.20994408 -50.93629051 172.97522689 -40.453125 179.58984375 C-35.84415683 182.06816706 -33.07447471 182.50386968 -27.49609375 183.30078125 C-27.49609375 173.40078125 -27.49609375 163.50078125 -27.49609375 153.30078125 C-38.05609375 153.30078125 -48.61609375 153.30078125 -59.49609375 153.30078125 Z M-16.49609375 153.30078125 C-16.49609375 163.20078125 -16.49609375 173.10078125 -16.49609375 183.30078125 C-5.15805999 180.46627281 3.77868026 175.99246425 10.078125 165.73828125 C12.2907792 161.47781242 13.54981073 158.07125884 14.50390625 153.30078125 C4.27390625 153.30078125 -5.95609375 153.30078125 -16.49609375 153.30078125 Z M26.50390625 153.30078125 C25.18390625 157.26078125 23.86390625 161.22078125 22.50390625 165.30078125 C19.85499134 171.06879346 16.75847921 176.55529602 12.50390625 181.30078125 C19.45889894 180.81220738 25.93319327 179.67171491 32.62890625 177.73828125 C33.98761841 177.34672852 33.98761841 177.34672852 35.3737793 176.94726562 C49.22526589 172.764397 62.75466344 166.26867941 72.50390625 155.30078125 C72.50390625 154.64078125 72.50390625 153.98078125 72.50390625 153.30078125 C57.32390625 153.30078125 42.14390625 153.30078125 26.50390625 153.30078125 Z " fill="#FFFFFF" transform="translate(918.49609375,127.69921875)"/>
<path d="M0 0 C13.12305732 6.11447946 23.08215837 21.26998055 29 34 C29.41121094 34.81082031 29.82242188 35.62164062 30.24609375 36.45703125 C35.00331873 47.17313319 34.64817451 60.80033337 30.60546875 71.67578125 C29.37474785 76.40016148 30.34132569 81.23071006 31 86 C31.18400759 87.45551327 31.36624412 88.91125133 31.546875 90.3671875 C31.69640625 91.56601563 31.8459375 92.76484375 32 94 C33.13050781 93.5153125 34.26101563 93.030625 35.42578125 92.53125 C45.21917121 88.4268804 55.0461146 84.94625931 65.25 82 C95.89863762 74.67387562 95.89863762 74.67387562 120 56 C125.57949878 60.86213465 127.10629253 68.99266943 127.9375 76.0625 C128.32978536 83.83779707 126.8499188 90.11818646 121.9375 96.25 C114.06900168 104.2124378 104.28551843 107.61005786 93.8125 110.9375 C92.48260337 111.37055966 91.15301724 111.80457393 89.82373047 112.23950195 C82.74511555 114.54313897 75.63388558 116.72726517 68.49536133 118.83813477 C51.81681017 123.77346516 37.1785782 129.03570708 25 142 C24.18247697 140.41925436 23.37118003 138.83528777 22.5625 137.25 C22.11003906 136.36828125 21.65757812 135.4865625 21.19140625 134.578125 C18.97754772 129.78748032 18.78868853 125.42495943 18.75 120.1875 C18.729375 119.50107422 18.70875 118.81464844 18.6875 118.10742188 C18.64872791 112.98465902 19.83767516 109.6262371 22 105 C22 104.01 22 103.02 22 102 C19.0241586 100.5120793 16.5476306 101.16041693 13.25 101.4375 C-6.28191016 102.89692922 -28.09286877 103.15031765 -44 90 C-49.34190411 85.03617586 -54.779426 77.65800381 -55.1328125 70.1953125 C-55.06707031 69.10863281 -55.06707031 69.10863281 -55 68 C-36.34709357 63.05490286 -14.42981293 64.18572983 3 72.6875 C11.18286597 77.57516994 16.29839132 85.10373409 21.45703125 92.93359375 C23.00190412 95.24308317 23.00190412 95.24308317 26 97 C24.26410542 86.23745358 20.07627771 79.09338351 11.23828125 72.69140625 C1.64939637 65.44535537 -2.9772627 54.72433531 -4.71875 43.01953125 C-6.05822228 28.63880797 -4.95407933 13.65602736 0 0 Z " fill="#FFFFFF" transform="translate(593,114)"/>
<path d="M0 0 C3.6338703 1.66369965 6.76902175 3.87177412 10.0625 6.125 C43.41863054 28.00899946 87.44072563 31.06593613 125.92651367 36.02099609 C193.00632266 44.77668827 193.00632266 44.77668827 213.4375 68.875 C218.87728276 79.75456552 218.36284355 90.84243666 218.1875 102.6875 C218.17242264 104.46808761 218.15873965 106.2486876 218.14648438 108.02929688 C218.11372792 112.35317507 218.06211542 116.67644799 218 121 C217.29222412 120.60748047 216.58444824 120.21496094 215.85522461 119.81054688 C188.69804906 104.8544877 159.55917895 99.21252362 129.42207336 93.3160553 C126.41761893 92.72810702 123.41374299 92.13726743 120.40991211 91.54614258 C116.51958613 90.78073219 112.62706765 90.02829929 108.73266602 89.28393555 C72.37874945 82.2346525 38.55894608 67.85948095 16.56933594 36.54199219 C8.93677632 25.21250715 3.89799094 13.04327737 0 0 Z M43 40 C67.12752007 65.7360214 102.99299773 71.29737561 136 78 C143.43932224 79.51203287 150.87737195 81.02996217 158.3125 82.5625 C159.22461243 82.75003845 160.13672485 82.9375769 161.07647705 83.13079834 C175.28614734 86.06585641 189.18834071 89.51157154 203 94 C202.0247961 85.62949984 199.49218852 79.72215376 192.9375 74.25 C171.96325253 59.42455472 140.62334771 58.64142918 115.87939453 54.68328857 C68.56407171 47.11288577 68.56407171 47.11288577 48.08111572 40.55751038 C45.87611291 39.87061709 45.87611291 39.87061709 43 40 Z " fill="#FFFFFF" transform="translate(1435,282)"/>
<path d="M0 0 C-1.17964669 6.31157425 -2.97440809 11.96968738 -5.625 17.8125 C-5.97763916 18.59439697 -6.33027832 19.37629395 -6.69360352 20.18188477 C-11.84510939 31.30058022 -18.98486431 40.77891729 -27 50 C-27.79083984 50.91845703 -27.79083984 50.91845703 -28.59765625 51.85546875 C-53.88491104 79.08292212 -91.9268729 86.48299291 -126.72747803 93.15301514 C-134.02412403 94.55296461 -141.31637823 95.97531705 -148.60546875 97.4140625 C-149.37847195 97.56636007 -150.15147514 97.71865765 -150.94790268 97.8755703 C-171.59092526 101.96445761 -191.6745113 107.04775575 -210.125 117.44921875 C-212.71208178 118.84469629 -215.26585134 119.93585691 -218 121 C-217.93072728 115.46775019 -217.84257175 109.93622786 -217.73754883 104.40454102 C-217.70446816 102.52604296 -217.67638473 100.64744954 -217.65356445 98.76879883 C-217.61970614 96.05509111 -217.56737785 93.34224424 -217.51171875 90.62890625 C-217.50532883 89.80040665 -217.4989389 88.97190704 -217.49235535 88.11830139 C-217.25731604 78.61717691 -214.26439314 70.21627218 -208 63 C-183.65777607 40.88193867 -145.7421505 38.69113496 -114.8125 34.5625 C-54.8723171 28.81514493 -54.8723171 28.81514493 -3.2421875 1.234375 C-2 0 -2 0 0 0 Z M-54.375 42.5 C-63.9350475 45.36398402 -73.57705098 47.4742242 -83.375 49.3125 C-84.12841675 49.45403503 -84.8818335 49.59557007 -85.65808105 49.74139404 C-96.39752514 51.74093438 -107.16828089 53.5334302 -117.953125 55.26953125 C-119.16267853 55.46474869 -120.37223206 55.65996613 -121.61843872 55.86109924 C-127.62656314 56.82863068 -133.63628911 57.78324879 -139.64990234 58.71606445 C-171.70803606 62.66866223 -171.70803606 62.66866223 -197.66796875 79.80859375 C-200.20101701 83.9758667 -203 89.02176234 -203 94 C-197.7042126 92.5672184 -192.4119307 91.12739701 -187.14160156 89.60327148 C-170.60531111 84.874114 -153.83279255 81.60707871 -136.96044922 78.32543945 C-123.46844808 75.69070542 -110.0639982 72.92258985 -96.78125 69.36328125 C-95.74184265 69.08541275 -94.7024353 68.80754425 -93.63153076 68.52125549 C-74.46864062 63.23376367 -57.36323446 54.94525674 -43 41 C-47.22357716 39.59214095 -50.28917093 41.19173155 -54.375 42.5 Z " fill="#FFFFFF" transform="translate(1886,282)"/>
<path d="M0 0 C3.25283201 1.41147116 5.22954548 3.09327373 7.625 5.6875 C12.03084086 10.17418197 16.67731245 13.66503809 22 17 C22.96292969 17.61488281 23.92585938 18.22976563 24.91796875 18.86328125 C33.33090908 23.78480203 42.22362115 27.03351281 51.4375 30.125 C52.60764648 30.52050049 53.77779297 30.91600098 54.98339844 31.32348633 C78.33710189 38.92676253 102.51608968 43.5111819 126.54663086 48.39819336 C182.43729748 59.77873016 182.43729748 59.77873016 192.125 74.125 C192.60195312 74.80820312 193.07890625 75.49140625 193.5703125 76.1953125 C197.57252807 84.04665344 198.49455708 91.85508314 198.6875 100.5625 C198.73656494 102.1714917 198.73656494 102.1714917 198.78662109 103.81298828 C199.00261326 111.66527478 199.09476316 119.51994235 199.125 127.375 C199.13213013 128.87848999 199.13213013 128.87848999 199.1394043 130.41235352 C199.137229 131.37713623 199.13505371 132.34191895 199.1328125 133.3359375 C199.13168457 134.16657715 199.13055664 134.9972168 199.12939453 135.85302734 C198.93504748 140.57969437 198.42829391 145.28876701 198 150 C181.5 150 165 150 148 150 C147.75 133.9375 147.75 133.9375 147.70214844 128.90991211 C147.67274478 127.57402165 147.64191297 126.23816154 147.609375 124.90234375 C147.60768311 123.88726746 147.60768311 123.88726746 147.60595703 122.85168457 C147.41678759 116.46490901 145.2208509 112.15110517 140.63671875 107.7109375 C132.93491673 102.71332375 123.19190017 100.99013279 114.33105469 99.07080078 C75.84198014 90.71762819 38.02514802 78.01006239 15 44 C14.46375 43.22011719 13.9275 42.44023437 13.375 41.63671875 C5.83837885 29.9588813 0 14.05646562 0 0 Z M35 43 C39.72731865 54.17366227 51.35989184 60.93146357 61.75 66.1875 C62.33177002 66.48382324 62.91354004 66.78014648 63.51293945 67.08544922 C75.70488317 72.99522916 88.57912993 76.93068934 101.6517334 80.3265686 C105.69473466 81.37840676 109.72933515 82.46181664 113.765625 83.5390625 C114.56019104 83.75031265 115.35475708 83.96156281 116.17340088 84.17921448 C123.04675167 86.00688758 129.90814522 87.86954076 136.75 89.8125 C137.67554688 90.06572021 138.60109375 90.31894043 139.5546875 90.57983398 C148.11572564 93.04033385 156.0352205 96.32715896 161 104 C162.96812923 110.34174974 163.40611834 116.38794991 163.625 123 C163.66367188 123.96550781 163.70234375 124.93101562 163.7421875 125.92578125 C163.83556532 128.28357126 163.91882863 130.64175821 164 133 C170.27 133 176.54 133 183 133 C183.06935446 128.34040775 183.12893637 123.68264886 183.16479492 119.02294922 C183.17976271 117.44215789 183.20014437 115.86140722 183.22631836 114.28076172 C183.41167883 102.78841262 183.51508214 92.10330319 175.75390625 82.80859375 C170.35272072 77.23899709 164.74034164 74.67500628 157.2578125 72.75 C156.45049179 72.54018997 155.64317108 72.33037994 154.81138611 72.11421204 C139.40064626 68.23318803 123.70928833 65.38736338 108.12133789 62.31030273 C84.83999099 57.70711408 61.69701089 52.83057488 39.59425354 43.95793152 C37.14821372 42.88453632 37.14821372 42.88453632 35 43 Z " fill="#FFFFFF" transform="translate(1453,339)"/>
<path d="M0 0 C0.33 0 0.66 0 1 0 C2.61251527 19.75331204 -9.45209294 40.17270945 -21.33984375 54.8984375 C-44.93443288 82.20238667 -82.89869673 93.67046774 -117.17700195 100.27807617 C-126.63047736 102.14175882 -136.48229298 104.39917549 -143 112 C-146.12718072 117.05579043 -146.13031274 122.91545381 -146.31640625 128.7109375 C-146.37356812 130.39388916 -146.37356812 130.39388916 -146.43188477 132.11083984 C-146.47498779 133.5180127 -146.51809082 134.92518555 -146.5625 136.375 C-146.706875 140.87125 -146.85125 145.3675 -147 150 C-163.5 150 -180 150 -197 150 C-197.04611 142.38672715 -197.08587682 134.77394616 -197.10986328 127.16064453 C-197.11987133 124.57501577 -197.1334819 121.98939819 -197.15087891 119.40380859 C-197.17535674 115.6702192 -197.18653544 111.93678049 -197.1953125 108.203125 C-197.20563507 107.06200256 -197.21595764 105.92088013 -197.22659302 104.74517822 C-197.22838493 91.69405518 -195.78275416 80.41259072 -187.390625 70.00390625 C-178.83355908 61.50363501 -165.95603499 58.04382726 -154.59375 55.12890625 C-153.60265732 54.87278564 -152.61156464 54.61666504 -151.59043884 54.3527832 C-139.66709485 51.32998815 -127.61994692 48.91828919 -115.5625 46.5 C-93.26969069 42.02174285 -71.00981968 37.41677975 -49.4375 30.125 C-48.80832672 29.9137851 -48.17915344 29.70257019 -47.53091431 29.48495483 C-28.7978942 23.16155385 -14.03967955 14.03967955 0 0 Z M-40.56556702 45.13691711 C-48.8730267 48.37867924 -57.2486965 51.04190563 -65.8828125 53.265625 C-67.03129166 53.56213455 -68.17977081 53.8586441 -69.36305237 54.16413879 C-86.23433982 58.42395319 -103.32202513 61.73283686 -120.37335205 65.17993164 C-125.16887059 66.14998681 -129.9630636 67.12617381 -134.75570869 68.11033058 C-136.95446267 68.55933578 -139.15483909 68.99959713 -141.35545349 69.43937683 C-154.37876142 72.08266854 -165.66466592 74.66466592 -175.25 84.25 C-181.82676088 94.58490996 -181.48933168 104.27582418 -181.25 116.125 C-181.22990082 117.86195853 -181.2116561 119.59893957 -181.1953125 121.3359375 C-181.15502268 125.55831069 -181.07669506 129.77751059 -181 134 C-174.73 134 -168.46 134 -162 134 C-161.96261719 132.27652344 -161.92523437 130.55304688 -161.88671875 128.77734375 C-161.82104063 126.49737474 -161.75459393 124.21742778 -161.6875 121.9375 C-161.66494141 120.80376953 -161.64238281 119.67003906 -161.61914062 118.50195312 C-161.41826855 112.23839668 -160.93275031 107.55639327 -158 102 C-157.67 101.01 -157.34 100.02 -157 99 C-155.24536133 97.96191406 -155.24536133 97.96191406 -153 97 C-152.23002686 96.61811523 -151.46005371 96.23623047 -150.66674805 95.84277344 C-143.55124314 92.45756478 -136.42333776 90.23868236 -128.8125 88.25 C-126.91173792 87.73784816 -125.01098363 87.22566612 -123.1105957 86.71212769 C-121.11399349 86.17355751 -119.1164395 85.63864875 -117.11865234 85.10449219 C-110.79688752 83.4117246 -104.48324143 81.69044208 -98.17684937 79.94128418 C-96.1950022 79.39431971 -94.21057766 78.85761386 -92.22583008 78.32128906 C-70.54632695 72.31234961 -48.90315234 63.54914283 -34 46 C-33.67 45.01 -33.34 44.02 -33 43 C-35.7845194 43 -38.00690937 44.12945548 -40.56556702 45.13691711 Z " fill="#FFFFFF" transform="translate(1866,339)"/>
<path d="M0 0 C2.4375 1.5625 2.4375 1.5625 4 4 C4.5625 7.4375 4.5625 7.4375 4 11 C-0.02461919 15.83277566 -5.15573415 18.8653631 -10.4375 22.1875 C-32.29065561 36.16885189 -53.36927112 51.89310436 -72.375 69.5859375 C-73.76937092 70.86826076 -75.17018939 72.14479106 -76.61303711 73.37231445 C-82.98282609 78.79650259 -88.85330771 84.70207535 -94.75463867 90.62426758 C-96.55862085 92.43360933 -98.36788665 94.23754319 -100.17773438 96.04101562 C-105.99759646 101.8572224 -111.70449464 107.6949497 -117 114 C-117.87655981 115.01002188 -118.75411275 116.01918302 -119.6328125 117.02734375 C-140.09082819 140.91640595 -158.22442948 166.80264086 -174 194 C-174.37415039 194.64388672 -174.74830078 195.28777344 -175.13378906 195.95117188 C-206.88336904 250.96946347 -228.8187062 312.19760777 -237.2734375 375.25390625 C-237.38148209 376.05031021 -237.48952667 376.84671417 -237.60084534 377.66725159 C-238.13469154 381.61771353 -238.64812961 385.56894784 -239.12573242 389.52661133 C-239.31379394 390.97353466 -239.50232935 392.4203965 -239.69140625 393.8671875 C-239.84810791 395.14706543 -240.00480957 396.42694336 -240.16625977 397.74560547 C-241.09853904 401.38463407 -242.00608947 402.77876671 -245 405 C-248.80853299 405.54407614 -251.03362851 405.52035388 -254.4375 403.6875 C-259.09591246 395.67503057 -255.28793453 382.93997675 -254 374.125 C-253.891185 373.372117 -253.78237 372.61923401 -253.67025757 371.84353638 C-242.5681398 295.89520614 -214.6729188 222.40457291 -171.80517578 158.68408203 C-170.0656564 156.09762328 -168.3425022 153.50087726 -166.62109375 150.90234375 C-160.04202983 141.04847712 -152.99431912 131.76098107 -145.39257812 122.67626953 C-143.53474575 120.43996569 -141.73545155 118.1595872 -139.9375 115.875 C-124.29306974 96.32759337 -107.11341505 76.88079497 -87.96484375 60.6875 C-85.5404227 58.60529345 -83.21649968 56.42497793 -80.875 54.25 C-75.66362765 49.49803238 -70.21587745 45.14173463 -64.63671875 40.83203125 C-62.2541791 38.98967797 -59.90525429 37.11579443 -57.58203125 35.19921875 C-46.53575333 26.11158873 -34.85227985 17.99717654 -23 10 C-22.18128418 9.44344727 -21.36256836 8.88689453 -20.51904297 8.31347656 C-18.35878601 6.85499411 -16.18438394 5.42201167 -14 4 C-13.38455322 3.58476074 -12.76910645 3.16952148 -12.13500977 2.74169922 C-7.96332327 0.09482808 -4.89898858 -0.52978127 0 0 Z " fill="#FFFFFF" transform="translate(505,226)"/>
<path d="M0 0 C2.40314549 1.13555226 4.46923655 2.26569876 6.6875 3.6875 C7.65308838 4.28872681 7.65308838 4.28872681 8.63818359 4.90209961 C10.77325314 6.24686339 12.88867977 7.61826818 15 9 C15.72944824 9.47663086 16.45889648 9.95326172 17.21044922 10.44433594 C34.17241628 21.62005692 50.48932409 33.88280207 66 47 C66.5151416 47.4316748 67.0302832 47.86334961 67.56103516 48.30810547 C80.60689837 59.24991971 92.93745048 70.86148998 105 82.875 C105.78914795 83.6594751 106.5782959 84.4439502 107.39135742 85.25219727 C111.58683582 89.45927401 115.61841193 93.74994611 119.49414062 98.25341797 C121.36445516 100.42271599 123.30672177 102.52105704 125.25 104.625 C130.2918172 110.21946159 134.89119697 116.10897767 139.49023438 122.06640625 C141.00829137 124.01061896 142.55465633 125.92876815 144.109375 127.84375 C151.7062991 137.2815631 158.59847753 147.11247646 165.3125 157.1875 C165.72861542 157.81035889 166.14473083 158.43321777 166.57345581 159.07495117 C177.32213868 175.20182709 186.92420755 191.87888028 196 209 C196.46164551 209.86979492 196.92329102 210.73958984 197.39892578 211.63574219 C222.77959095 259.87272528 261.50181689 345.10897451 251 401 C248.49440135 404.18894373 247.59239802 404.91537171 243.5 405.5 C239.32353441 404.90336206 238.50172781 404.32607938 236 401 C235.30998166 398.13770169 234.84536155 395.52854209 234.5078125 392.625 C234.39679199 391.79668167 234.28577148 390.96836334 234.17138672 390.11494446 C233.93358475 388.33675996 233.70270828 386.55763817 233.47808838 384.77774048 C232.88213796 380.08940834 232.22261281 375.4101328 231.5625 370.73046875 C231.43191193 369.80026413 231.30132385 368.87005951 231.16677856 367.91166687 C229.43798321 355.79044944 226.90151929 343.89345915 224 332 C223.71962891 330.83629883 223.43925781 329.67259766 223.15039062 328.47363281 C203.81920361 249.33525243 165.22816815 173.33417768 109.9765625 113.16015625 C108.10874502 111.11884584 106.30052609 109.03811377 104.5 106.9375 C101.19789848 103.1362436 97.6446734 99.62540349 94.05859375 96.09375 C92.40015004 94.40698372 90.9005479 92.72720879 89.4375 90.875 C86.8871338 87.86687577 84.15587882 85.4579203 81.16015625 82.91015625 C78.89348004 80.90580785 76.79636736 78.7942285 74.6875 76.625 C70.58926948 72.47033946 66.21729494 68.81180904 61.6640625 65.16796875 C59.32235584 63.2623277 57.09490677 61.29419987 54.875 59.25 C47.95568554 53.04351012 40.44486472 47.55288794 33 42 C32.28666504 41.46713379 31.57333008 40.93426758 30.83837891 40.38525391 C20.67328088 32.82838264 10.24306898 25.77908755 -0.47314453 19.02392578 C-1.40884277 18.42692871 -2.34454102 17.82993164 -3.30859375 17.21484375 C-4.14189209 16.69011475 -4.97519043 16.16538574 -5.83374023 15.62475586 C-8.10844949 13.91865983 -9.54734263 12.44153758 -11 10 C-10.93416738 6.24754049 -10.81598805 3.93687517 -8.3125 1.0625 C-5.26640181 -0.33705863 -3.34683805 -0.30353185 0 0 Z " fill="#FFFFFF" transform="translate(1043,225)"/>
<path d="M0 0 C9.9 0 19.8 0 30 0 C39.24186843 28.16024762 48.44145565 56.33237317 57.43139648 84.57421875 C60.3338981 93.6892904 63.24815146 102.79857324 66.2578125 111.87890625 C66.74305436 113.35046023 67.22816707 114.82205681 67.71313477 116.29370117 C68.5801364 118.92404755 69.45971809 121.5496717 70.34741211 124.1730957 C70.71874268 125.2993335 71.09007324 126.42557129 71.47265625 127.5859375 C71.79500244 128.5454834 72.11734863 129.5050293 72.44946289 130.49365234 C73 133 73 133 72 137 C64.08 137 56.16 137 48 137 C44.5625 126.0625 44.5625 126.0625 43.48266602 122.60961914 C43.20092529 121.71879639 42.91918457 120.82797363 42.62890625 119.91015625 C42.34088135 118.99371338 42.05285645 118.07727051 41.75610352 117.13305664 C41.18796063 115.04455074 41.18796063 115.04455074 40 114 C38.43452952 113.90673284 36.86487228 113.88254418 35.29663086 113.88647461 C33.79518776 113.88658791 33.79518776 113.88658791 32.26341248 113.88670349 C31.1748848 113.89186478 30.08635712 113.89702606 28.96484375 113.90234375 C27.3022628 113.90446617 27.3022628 113.90446617 25.60609436 113.90663147 C22.04986931 113.91224967 18.49370617 113.92480525 14.9375 113.9375 C12.53320403 113.94251266 10.12890708 113.94707597 7.72460938 113.95117188 C1.81638496 113.96222501 -4.0918031 113.97898083 -10 114 C-12.36042431 119.39373759 -12.36042431 119.39373759 -14.3515625 124.9296875 C-14.56296875 125.579375 -14.774375 126.2290625 -14.9921875 126.8984375 C-15.30542969 127.87683594 -15.30542969 127.87683594 -15.625 128.875 C-17.86657303 135.86657303 -17.86657303 135.86657303 -19 137 C-20.70772358 137.08713831 -22.41898649 137.10700007 -24.12890625 137.09765625 C-25.68061523 137.09282227 -25.68061523 137.09282227 -27.26367188 137.08789062 C-28.35228516 137.07951172 -29.44089844 137.07113281 -30.5625 137.0625 C-32.2012207 137.05573242 -32.2012207 137.05573242 -33.87304688 137.04882812 C-36.58208495 137.03699826 -39.29101599 137.02051543 -42 137 C-43.03139521 133.83348983 -42.95985553 131.99490177 -41.93041992 128.84472656 C-41.66742096 128.02260178 -41.404422 127.20047699 -41.13345337 126.35343933 C-40.83546844 125.4582106 -40.53748352 124.56298187 -40.23046875 123.640625 C-39.92281586 122.68855667 -39.61516296 121.73648834 -39.29818726 120.75556946 C-38.27086779 117.58384667 -37.22913204 114.41704836 -36.1875 111.25 C-35.46307386 109.02239116 -34.73970386 106.79443861 -34.01733398 104.56616211 C-32.4824492 99.83481048 -30.94245483 95.10516246 -29.39941406 90.37646484 C-26.9904084 82.9836523 -24.61260247 75.58104459 -22.2421875 68.17578125 C-21.65420128 66.33990952 -21.65420128 66.33990952 -21.05433655 64.46694946 C-19.52282884 59.68487173 -17.99156881 54.90271472 -16.46054077 50.1204834 C-11.09437538 33.37191548 -5.58468292 16.67701866 0 0 Z M14 30 C11.51776163 38.03046542 9.04004895 46.062307 6.56812286 54.09595203 C5.42020195 57.8261347 4.27072034 61.55582146 3.11767578 65.28442383 C2.00525873 68.88185185 0.89693657 72.4805178 -0.20854187 76.08008385 C-0.63130191 77.45406795 -1.0555426 78.82759736 -1.48127747 80.20066261 C-2.07670706 82.12190922 -2.66641714 84.0449256 -3.25585938 85.96801758 C-3.59339233 87.06277908 -3.93092529 88.15754059 -4.27868652 89.28547668 C-5.12840591 92.01511006 -5.12840591 92.01511006 -5 95 C7.87 95 20.74 95 34 95 C35.49505938 92.00988123 34.36569654 90.2593648 33.40112305 87.09741211 C33.02710861 85.85950424 32.65309418 84.62159637 32.26774597 83.34617615 C31.84945682 81.9897794 31.43077153 80.63350477 31.01171875 79.27734375 C30.58867421 77.89267134 30.16605697 76.50786831 29.74385071 75.12294006 C28.85659336 72.21872194 27.9639711 69.31622093 27.06762695 66.41479492 C25.91730489 62.6896276 24.78062406 58.96046199 23.64795208 55.22989559 C22.77763587 52.36895678 21.90001189 49.51030098 21.02015114 46.65228462 C20.59801528 45.27782024 20.17821131 43.90263749 19.76074791 42.52674675 C19.17698263 40.60661057 18.58229186 38.68980613 17.98706055 36.77319336 C17.65095261 35.68002304 17.31484467 34.58685272 16.96855164 33.46055603 C16.25768885 30.85031681 16.25768885 30.85031681 14 30 Z " fill="#FFFFFF" transform="translate(476,370)"/>
<path d="M0 0 C6.25491144 5.2945614 10.64658717 11.40918272 11.93359375 19.63671875 C12.02475249 22.05302775 12.06148852 24.47162096 12.06298828 26.88964844 C12.06561676 27.95635017 12.06561676 27.95635017 12.06829834 29.04460144 C12.072681 31.38262407 12.0697928 33.72057042 12.06640625 36.05859375 C12.06708002 37.68573013 12.06805066 39.31286641 12.06930542 40.94000244 C12.07077727 44.34266116 12.06864318 47.74529357 12.06396484 51.14794922 C12.05824968 55.51851859 12.06156105 59.8890268 12.06753731 64.25959396 C12.07114128 67.61548325 12.07000541 70.9713579 12.06740952 74.32724762 C12.06674073 75.93966936 12.06756699 77.55209242 12.06988907 79.16451263 C12.07241487 81.41016701 12.0685769 83.65572038 12.06298828 85.90136719 C12.06219269 87.18090271 12.06139709 88.46043823 12.06057739 89.77874756 C11.93359375 92.63671875 11.93359375 92.63671875 10.93359375 93.63671875 C9.29886493 93.72372217 7.6604532 93.74372938 6.0234375 93.734375 C5.03408203 93.73115234 4.04472656 93.72792969 3.02539062 93.72460938 C1.98447266 93.71623047 0.94355469 93.70785156 -0.12890625 93.69921875 C-1.17369141 93.69470703 -2.21847656 93.69019531 -3.29492188 93.68554688 C-5.88547285 93.67371788 -8.47591184 93.65723564 -11.06640625 93.63671875 C-11.72640625 91.32671875 -12.38640625 89.01671875 -13.06640625 86.63671875 C-13.55367187 87.03503906 -14.0409375 87.43335938 -14.54296875 87.84375 C-23.88632053 94.82578197 -35.28577316 96.68728194 -46.7109375 95.3203125 C-56.20623717 93.87848177 -64.22102529 90.58077999 -70.25390625 82.82421875 C-75.05264014 74.38506605 -75.56301584 64.05683375 -73.37890625 54.6875 C-69.85136781 45.08965582 -64.49062237 40.40289209 -55.45703125 35.8984375 C-45.9298392 32.35318055 -36.48181969 32.38516895 -26.44140625 32.51171875 C-25.04167311 32.52177477 -23.64193294 32.53089596 -22.2421875 32.5390625 C-18.850077 32.56245637 -15.45833565 32.59523702 -12.06640625 32.63671875 C-12.34383385 30.53506849 -12.63403267 28.43510117 -12.9296875 26.3359375 C-13.17005737 24.58156372 -13.17005737 24.58156372 -13.4152832 22.79174805 C-13.89282225 19.44839442 -13.89282225 19.44839442 -16.25390625 16.44921875 C-23.04085755 12.07540569 -29.36076734 12.25156614 -37.06640625 13.63671875 C-41.37035244 15.04528296 -43.21200075 16.50568684 -45.44140625 20.32421875 C-45.97765625 21.41734375 -46.51390625 22.51046875 -47.06640625 23.63671875 C-54.86064797 23.90548571 -62.40000271 23.0794348 -70.06640625 21.63671875 C-71.06640625 20.63671875 -71.06640625 20.63671875 -71.15625 18.8515625 C-70.71322127 12.22885099 -68.5506877 8.44712976 -64.06640625 3.63671875 C-63.3084375 2.816875 -63.3084375 2.816875 -62.53515625 1.98046875 C-46.87898547 -13.06173455 -16.81950106 -12.25200353 0 0 Z M-48.62890625 56.38671875 C-50.51640351 60.65410385 -50.58298365 62.98752215 -50.06640625 67.63671875 C-48.29208824 71.83905089 -46.26960287 73.88538682 -42.06640625 75.63671875 C-34.6310392 77.19826595 -27.98389859 76.90723383 -21.06640625 73.63671875 C-17.06938624 70.98684252 -13.73308287 68.23198428 -12.06640625 63.63671875 C-11.82467918 60.12802461 -11.82467918 60.12802461 -11.94140625 56.38671875 C-11.95945312 55.1234375 -11.9775 53.86015625 -11.99609375 52.55859375 C-12.01929688 51.594375 -12.0425 50.63015625 -12.06640625 49.63671875 C-16.04531977 49.51935998 -20.02378085 49.44908221 -24.00390625 49.38671875 C-25.12087891 49.35320312 -26.23785156 49.3196875 -27.38867188 49.28515625 C-35.78268724 49.18669273 -42.70466584 50.02899733 -48.62890625 56.38671875 Z " fill="#FFFFFF" transform="translate(777.06640625,413.36328125)"/>
<path d="M0 0 C10.01236894 8.67126264 13.58725464 19.18627321 16.125 31.875 C16.125 38.805 16.125 45.735 16.125 52.875 C-4.665 53.205 -25.455 53.535 -46.875 53.875 C-45.86425053 61.96099573 -45.27707594 65.56245237 -39.5 71.1875 C-32.80038004 75.49439855 -25.61248165 75.76394865 -17.875 74.875 C-11.68325961 72.87446439 -7.69487023 70.16405108 -3.875 64.875 C-1.98925781 64.09008789 -1.98925781 64.09008789 0.125 63.875 C1.86425781 64.77124023 1.86425781 64.77124023 3.578125 66.18359375 C4.196875 66.68310547 4.815625 67.18261719 5.453125 67.69726562 C6.08734375 68.23029297 6.7215625 68.76332031 7.375 69.3125 C8.34953125 70.10624023 8.34953125 70.10624023 9.34375 70.91601562 C10.9467887 72.22437809 12.53714592 73.54825027 14.125 74.875 C13.13482479 80.87667424 10.52419287 83.92856486 5.91015625 87.671875 C-6.6726688 96.52715639 -21.92551601 98.54117721 -36.9375 96.25 C-47.74364605 93.76441012 -57.23128912 87.99432467 -63.5 78.875 C-72.915997 63.43859784 -74.32316822 42.34204292 -70.75 24.8125 C-67.63097062 13.45865005 -61.75257313 4.18881112 -51.5625 -1.875 C-50.01592995 -2.65732175 -48.45300701 -3.40820147 -46.875 -4.125 C-46.17246094 -4.44597656 -45.46992187 -4.76695312 -44.74609375 -5.09765625 C-30.87799115 -10.2831207 -12.03343672 -8.54050962 0 0 Z M-41.6875 18.1875 C-46.04159242 23.53681354 -47.41746766 28.126398 -47.875 34.875 C-46.03223491 36.71776509 -43.44536241 36.00374411 -40.99365234 36.01394653 C-40.17074707 36.0119223 -39.3478418 36.00989807 -38.5 36.0078125 C-37.66033691 36.00876923 -36.82067383 36.00972595 -35.95556641 36.01071167 C-34.17675705 36.01139348 -32.39794523 36.00953917 -30.61914062 36.00537109 C-27.88666224 36.00002283 -25.15434824 36.00531605 -22.421875 36.01171875 C-20.6979163 36.01105797 -18.97395771 36.00977681 -17.25 36.0078125 C-16.42709473 36.00983673 -15.60418945 36.01186096 -14.75634766 36.01394653 C-11.01120134 36.3607546 -11.01120134 36.3607546 -7.875 34.875 C-7.67090132 28.21263589 -9.50315321 22.89410722 -13.875 17.875 C-22.0607272 10.66822745 -33.61081661 11.54667144 -41.6875 18.1875 Z " fill="#FFFFFF" transform="translate(1087.875,412.125)"/>
<path d="M0 0 C8.22459516 5.99990958 12.61739789 12.47683359 14.5703125 22.48828125 C14.97721494 28.20172223 14.94530974 33.89218409 14.8984375 39.6171875 C14.89537462 41.25959601 14.89350253 42.90200713 14.89276123 44.54441833 C14.88818586 47.96436706 14.87385751 51.38407666 14.8515625 54.80395508 C14.82307998 59.19569279 14.81232786 63.58724455 14.8078804 67.9790659 C14.80373652 71.35983649 14.79393101 74.74056933 14.78200531 78.12132072 C14.77629855 79.74211259 14.77154119 81.36290807 14.76773834 82.98370552 C14.76090202 85.23602926 14.74728774 87.48820244 14.73144531 89.74047852 C14.72461731 91.02269791 14.71778931 92.3049173 14.71075439 93.62599182 C14.5703125 96.48828125 14.5703125 96.48828125 13.5703125 97.48828125 C11.93558368 97.57528467 10.29717195 97.59529188 8.66015625 97.5859375 C7.67080078 97.58271484 6.68144531 97.57949219 5.66210938 97.57617188 C4.62119141 97.56779297 3.58027344 97.55941406 2.5078125 97.55078125 C1.46302734 97.54626953 0.41824219 97.54175781 -0.65820312 97.53710938 C-3.2487541 97.52528038 -5.83919309 97.50879814 -8.4296875 97.48828125 C-9.83065144 94.68635338 -9.55441414 92.37213734 -9.55566406 89.23779297 C-9.56137421 87.26466629 -9.56137421 87.26466629 -9.56719971 85.25167847 C-9.56739357 84.54598598 -9.56758743 83.8402935 -9.56778717 83.1132164 C-9.57120487 80.14223891 -9.59257659 77.17147982 -9.61301804 74.20057869 C-9.65099743 68.66949843 -9.68231046 63.1386474 -9.68017578 57.60742188 C-9.67938546 53.75981932 -9.70289215 49.91301141 -9.7420578 46.06561661 C-9.75247562 44.60415349 -9.75407301 43.14259815 -9.74640656 41.68111801 C-9.7083571 33.61893596 -9.68487086 26.71901375 -15.4296875 20.48828125 C-19.47589657 17.00404566 -24.20866905 16.35753788 -29.4296875 16.48828125 C-33.89886478 17.31176114 -37.24970256 18.90635353 -40.3046875 22.30078125 C-43.75083969 27.47000954 -44.67688748 31.96006222 -44.73266602 38.12036133 C-44.74930801 39.41802933 -44.76595001 40.71569733 -44.78309631 42.0526886 C-44.79165442 43.45439621 -44.80015215 44.85610419 -44.80859375 46.2578125 C-44.82478107 47.7041688 -44.84196235 49.15051428 -44.86009216 50.59684753 C-44.90561662 54.38901792 -44.94051595 58.1812029 -44.97229004 61.97351074 C-45.02433505 68.06086075 -45.08917184 74.14805314 -45.16050529 80.2352047 C-45.18338065 82.36299074 -45.19961734 84.49075637 -45.21522522 86.61860657 C-45.22871506 87.90051376 -45.2422049 89.18242096 -45.25610352 90.50317383 C-45.26561539 91.63757401 -45.27512726 92.77197418 -45.28492737 93.94075012 C-45.4296875 96.48828125 -45.4296875 96.48828125 -46.4296875 97.48828125 C-53.6896875 97.48828125 -60.9496875 97.48828125 -68.4296875 97.48828125 C-68.4296875 64.48828125 -68.4296875 31.48828125 -68.4296875 -2.51171875 C-66.10625194 -3.67343653 -64.73335434 -3.64075844 -62.1484375 -3.64453125 C-61.30667969 -3.64582031 -60.46492187 -3.64710938 -59.59765625 -3.6484375 C-58.27701172 -3.64263672 -58.27701172 -3.64263672 -56.9296875 -3.63671875 C-56.04925781 -3.64058594 -55.16882813 -3.64445312 -54.26171875 -3.6484375 C-52.99908203 -3.64650391 -52.99908203 -3.64650391 -51.7109375 -3.64453125 C-50.93814453 -3.64340332 -50.16535156 -3.64227539 -49.36914062 -3.64111328 C-47.4296875 -3.51171875 -47.4296875 -3.51171875 -45.4296875 -2.51171875 C-45.02239522 -0.19015278 -44.68530073 2.14515995 -44.4296875 4.48828125 C-44.02878906 4.08996094 -43.62789062 3.69164062 -43.21484375 3.28125 C-32.11443856 -7.06402558 -12.87247075 -8.00907746 0 0 Z " fill="#FFFFFF" transform="translate(879.4296875,409.51171875)"/>
<path d="M0 0 C7.20798201 5.49959666 13.08558847 11.86975485 15.625 20.75 C15.90606953 23.51922599 15.82806639 25.95783711 15.625 28.75 C8.3052723 30.61094772 1.15716715 31.30761615 -6.375 31.75 C-6.75011719 30.93015625 -7.12523437 30.1103125 -7.51171875 29.265625 C-8.02347656 28.18796875 -8.53523437 27.1103125 -9.0625 26 C-9.56136719 24.93265625 -10.06023438 23.8653125 -10.57421875 22.765625 C-13.31751459 18.17164585 -16.11145453 16.19224091 -21.125 14.4375 C-27.39068932 13.14196274 -33.01803848 13.71015885 -38.6875 16.75 C-43.88251152 20.32027684 -45.65980133 25.45720612 -46.95703125 31.4296875 C-48.46431937 43.40347166 -49.59006199 59.05021233 -42.125 69.25 C-36.88786359 74.0110331 -31.79459048 75.33339953 -24.87109375 75.1015625 C-19.6063626 74.36005107 -15.78818663 72.16318663 -12.0625 68.4375 C-10.0869473 65.2912494 -8.73075832 62.20718372 -7.375 58.75 C0.01924962 58.50352501 8.87383661 58.3744183 15.625 61.75 C15.16395563 71.27825027 12.04803183 79.51979471 4.890625 86.0859375 C-6.87362412 94.72657564 -20.27556701 97.99405447 -34.73046875 96.5078125 C-46.06560807 94.74176536 -56.60799961 88.87757957 -63.83203125 79.94921875 C-73.80703511 65.39354846 -74.10474251 45.10680512 -71.625 28.1875 C-69.27189682 16.5355822 -64.30630661 7.22883783 -54.75 -0.0625 C-38.53743155 -10.53007422 -16.16332799 -10.60566716 0 0 Z " fill="#FFFFFF" transform="translate(985.375,412.25)"/>
<path d="M0 0 C2.65018387 1.64494535 3.58216355 2.32206627 5 5 C5.75727194 9.59971728 5.66304408 14.19514593 5.61523438 18.84301758 C5.61873711 20.26918701 5.62439741 21.69535253 5.63204956 23.12150574 C5.64628966 26.98965193 5.62924188 30.85708651 5.60576439 34.72516465 C5.58563503 38.77866216 5.59153623 42.83213069 5.59387207 46.88566589 C5.5938185 53.69578762 5.57406854 60.50563187 5.54199219 67.31567383 C5.50514389 75.17678254 5.49631061 83.03752723 5.5032897 90.89871103 C5.50960816 98.47155767 5.49881275 106.04428011 5.47932434 113.61710167 C5.47117273 116.8342129 5.46843668 120.05126044 5.47001648 123.26838112 C5.47089924 127.06306338 5.45657476 130.85740292 5.43078995 134.65199471 C5.42366234 136.04025866 5.42152802 137.42855917 5.42490768 138.81683731 C5.45618044 154.69883245 5.45618044 154.69883245 0.29541016 161.12133789 C-4.71603003 165.2203656 -9.86379046 168.48793148 -15.625 171.4375 C-16.5207373 171.90196533 -17.41647461 172.36643066 -18.33935547 172.8449707 C-42.44052887 185 -42.44052887 185 -52 185 C-52.98838153 176.40653943 -53.24906935 167.83388819 -53.29516602 159.19311523 C-53.3067365 157.68748617 -53.3272677 156.18189971 -53.35668945 154.67651367 C-53.61665884 141.29898269 -52.11375833 132.56996137 -42.60400391 122.60253906 C-37.31996745 117.32147506 -32.01852577 112.05972068 -26.6340332 106.88085938 C-17.4009056 97.9815998 -12.3250304 91.4580258 -11.86869812 78.17926025 C-11.86036632 76.78651951 -11.85711543 75.39374184 -11.8581543 74.00097656 C-11.85467987 73.23424118 -11.85120544 72.4675058 -11.84762573 71.67753601 C-11.84031654 70.02540041 -11.83494563 68.3732553 -11.83133507 66.72110748 C-11.82412563 64.10685893 -11.80843034 61.49279331 -11.78999329 58.87860107 C-11.73770217 51.45050397 -11.68947864 44.02251597 -11.67407227 36.59423828 C-11.66401178 32.04075183 -11.63475206 27.48773986 -11.59275246 22.93444061 C-11.58042512 21.20090058 -11.57532436 19.46729368 -11.57755089 17.73371124 C-11.5798946 15.31576914 -11.5578161 12.89920197 -11.5300293 10.48144531 C-11.53993141 9.40605751 -11.53993141 9.40605751 -11.55003357 8.3089447 C-11.48974434 5.12357465 -11.40630608 3.43268667 -9.18171692 1.06365967 C-5.88828013 -0.54200047 -3.61066454 -0.50675994 0 0 Z M-30.375 132.1640625 C-39.0377453 141.53625677 -38.36847372 150.99048611 -38 163 C-33.67202721 162.41304691 -29.96650314 161.36668453 -25.9375 159.6875 C-24.93589844 159.27886719 -23.93429687 158.87023437 -22.90234375 158.44921875 C-17.32053555 155.66207091 -14.40096945 152.76232668 -12 147 C-11.14616059 144.13484566 -10.87167976 141.57917928 -10.8671875 138.59375 C-10.86589844 137.76746094 -10.86460938 136.94117188 -10.86328125 136.08984375 C-10.86908203 134.80787109 -10.86908203 134.80787109 -10.875 133.5 C-10.87113281 132.64535156 -10.86726563 131.79070312 -10.86328125 130.91015625 C-10.86457031 130.08386719 -10.86585937 129.25757813 -10.8671875 128.40625 C-10.86831543 127.65666016 -10.86944336 126.90707031 -10.87060547 126.13476562 C-11.00142253 123.97653095 -11.40833159 122.07524609 -12 120 C-17.86674547 120 -26.11806507 128.28521061 -30.375 132.1640625 Z " fill="#FFFFFF" transform="translate(1721,150)"/>
<path d="M0 0 C2.18270874 1.05990601 2.18270874 1.05990601 4 3 C4.40127652 5.64910328 4.54412033 7.89049914 4.51416016 10.54150391 C4.52484779 11.69090454 4.52484779 11.69090454 4.53575134 12.86352539 C4.5550764 15.40146463 4.54674117 17.93857372 4.5390625 20.4765625 C4.54896962 22.24434628 4.56091092 24.01211972 4.57479858 25.77987671 C4.60722235 30.44208132 4.61755612 35.10405117 4.62164307 39.76635742 C4.63038086 47.20714243 4.6661288 54.64773348 4.7138176 62.08835983 C4.72633266 64.67898638 4.72564985 67.26936542 4.72354126 69.86001587 C4.75910697 85.11681726 6.68623269 93.7598171 17.58804321 104.66122437 C21.17296354 108.20778569 24.78607726 111.72516414 28.41674805 115.22485352 C45.6588413 131.88557259 45.6588413 131.88557259 46.12939453 143.07763672 C46.13108643 144.86065186 46.13108643 144.86065186 46.1328125 146.6796875 C46.13376923 147.32890167 46.13472595 147.97811584 46.13571167 148.64700317 C46.13639118 150.02378435 46.13455289 151.40056876 46.13037109 152.77734375 C46.12510649 154.83341163 46.13027808 156.88925219 46.13671875 158.9453125 C46.14065977 167.67152112 45.74697368 176.30345675 45 185 C38.52640583 183.71175476 32.60989014 181.92062824 26.5 179.4375 C25.63922852 179.08888916 24.77845703 178.74027832 23.89160156 178.38110352 C-5.51457527 166.20958325 -5.51457527 166.20958325 -10.56408691 155.76469421 C-12.79605587 149.61354634 -12.43564673 143.22815269 -12.41992188 136.76879883 C-12.42727136 135.33731935 -12.43586014 133.90584579 -12.44558716 132.47438049 C-12.46770944 128.60682026 -12.47073887 124.73947364 -12.46883965 120.87185884 C-12.46871961 117.63849756 -12.47729624 114.40518103 -12.48561716 111.17183226 C-12.5048144 103.54559516 -12.50774708 95.91946753 -12.50097656 88.29321289 C-12.49432458 80.43018654 -12.51725467 72.56762794 -12.55429029 64.70469648 C-12.58497477 57.94440059 -12.59634912 51.18425538 -12.59245348 44.42389125 C-12.59038621 40.39002815 -12.59586274 36.35652992 -12.62034607 32.32273293 C-12.64259293 28.53283597 -12.64075361 24.74370242 -12.62041855 20.95380211 C-12.61700576 19.56425255 -12.62210943 18.17465175 -12.63640213 16.78517151 C-12.74946759 4.97820831 -12.74946759 4.97820831 -9.6842041 1.6660614 C-6.16673184 -0.51720207 -4.0709546 -0.59213885 0 0 Z M5 120 C3.59571534 124.21285399 3.77562314 128.21141495 3.75 132.625 C3.729375 133.48996094 3.70875 134.35492188 3.6875 135.24609375 C3.64872254 141.71223577 4.03820813 148.8669742 8.69335938 153.79125977 C13.88328821 158.13194073 20.53130944 161.14256171 27 163 C29.27696773 162.72588768 29.27696773 162.72588768 31 162 C31.77346081 148.91477495 31.77346081 148.91477495 27 137 C26.63390625 136.42507813 26.2678125 135.85015625 25.890625 135.2578125 C21.10003039 128.84078144 13.68066716 124.25678408 7 120 C6.34 120 5.68 120 5 120 Z " fill="#FFFFFF" transform="translate(1608,150)"/>
<path d="M0 0 C0.02712153 1.916588 0.04645097 3.8332873 0.0625 5.75 C0.07410156 6.81734375 0.08570313 7.8846875 0.09765625 8.984375 C0.01510087 11.53368501 -0.25382442 13.57933591 -1 16 C-1.59167969 15.86722656 -2.18335938 15.73445312 -2.79296875 15.59765625 C-3.58316406 15.42105469 -4.37335938 15.24445312 -5.1875 15.0625 C-5.96480469 14.88847656 -6.74210937 14.71445312 -7.54296875 14.53515625 C-8.35378906 14.35855469 -9.16460938 14.18195312 -10 14 C-10.76570313 13.81953125 -11.53140625 13.6390625 -12.3203125 13.453125 C-24.07769344 11.46499645 -34.22951849 12.65667224 -44.3125 19.125 C-51.38408683 26.68995335 -53.36455777 35.20100991 -53.28125 45.28125 C-52.67925348 53.24098174 -49.97120349 60.5480316 -44 66 C-34.67657043 72.19872945 -25.89902559 72 -15 72 C-15 64.74 -15 57.48 -15 50 C-20.94 50 -26.88 50 -33 50 C-33 45.05 -33 40.1 -33 35 C-21.12 35 -9.24 35 3 35 C3 50.84 3 66.68 3 83 C-18.05390431 87.6786454 -18.05390431 87.6786454 -25.6875 87.5 C-26.56051758 87.48791504 -27.43353516 87.47583008 -28.33300781 87.46337891 C-42.57459236 87.03252789 -54.27670625 83.17178582 -64.3125 72.75 C-73.89575755 61.44862854 -74.02773002 47.0997838 -73 33 C-71.04615869 21.89101654 -65.99928781 12.72909799 -57.2578125 5.56640625 C-40.27399122 -6.21648706 -19.13207503 -4.32596044 0 0 Z " fill="#FFFFFF" transform="translate(1633,542)"/>
<path d="M0 0 C46.6 0 46.6 0 55 7 C60.37416545 13.97189031 60.76472316 20.37746925 60 29 C58.22925044 35.78975308 53.77883512 39.38510097 48 43 C47.01 43.495 47.01 43.495 46 44 C46.75176514 44.82669189 47.50353027 45.65338379 48.27807617 46.50512695 C51.20410321 50.0254077 52.86589691 53.69215866 54.55078125 57.91796875 C54.85445114 58.65702957 55.15812103 59.39609039 55.47099304 60.157547 C56.10535604 61.70767151 56.73450921 63.25993747 57.35864258 64.81420898 C58.31585787 67.19585471 59.29031951 69.56987711 60.26757812 71.94335938 C60.88383039 73.45531469 61.49910002 74.96767096 62.11328125 76.48046875 C62.40382889 77.18987106 62.69437653 77.89927338 62.99372864 78.63017273 C64.17072066 81.57591729 65 83.79663909 65 87 C58.4 87 51.8 87 45 87 C44.24074219 85.12054687 43.48148438 83.24109375 42.69921875 81.3046875 C41.95468321 79.4677026 41.21012983 77.63072488 40.46508789 75.79394531 C39.95119236 74.52574472 39.43815583 73.25719566 38.92602539 71.98828125 C38.18606646 70.15531579 37.44267104 68.32373883 36.69921875 66.4921875 C36.25408936 65.39245605 35.80895996 64.29272461 35.3503418 63.15966797 C32.82103589 56.687363 32.82103589 56.687363 28 52 C24.7 51.67 21.4 51.34 18 51 C18 62.88 18 74.76 18 87 C12.06 87 6.12 87 0 87 C0 58.29 0 29.58 0 0 Z M18 14 C18 21.26 18 28.52 18 36 C28.48066231 36.62766635 28.48066231 36.62766635 38 33 C40.81405062 29.9136219 41.23544953 27.48851004 41.0625 23.4375 C40.50336976 19.70375253 40.17159359 19.15252763 37.1875 16.5 C32.48232825 14.28580153 28.95694692 13.88090275 23.75 13.9375 C20.90375 13.9684375 20.90375 13.9684375 18 14 Z " fill="#FFFFFF" transform="translate(1775,541)"/>
<path d="M0 0 C2.2043457 1.54626465 2.2043457 1.54626465 4 4 C4.34202712 6.67038392 4.4447123 8.91319168 4.35546875 11.57226562 C4.34653091 12.33076309 4.33759308 13.08926056 4.3283844 13.8707428 C4.30759262 15.51811447 4.27823633 17.16539523 4.24133301 18.81248474 C4.18680319 21.4398235 4.16424183 24.0656262 4.15136719 26.69348145 C4.1123182 34.16462362 4.0434411 41.63431766 3.88720703 49.10400391 C2.72581567 78.0385346 2.72581567 78.0385346 15.55183411 103.14624023 C17.9180646 106.17519079 19.53679475 109.54466825 21.1875 113 C21.71730469 114.0725 22.24710938 115.145 22.79296875 116.25 C25.73908725 122.96219232 26.32997834 130.58836453 24.19921875 137.65625 C18.46678967 150.10606161 6.61106472 159.51197878 -3 169 C-30.88300331 145.54229915 -30.88300331 145.54229915 -32.375 130.125 C-32.02876236 114.81635 -21.25837316 98.38755973 -13 86 C-12.80265742 83.42956827 -12.71976194 80.96584247 -12.72875977 78.39501953 C-12.72091965 77.23598114 -12.72091965 77.23598114 -12.71292114 76.05352783 C-12.70268017 74.37569332 -12.69690057 72.69782704 -12.69503975 71.01996231 C-12.69137951 68.36340731 -12.67466216 65.70722679 -12.65428162 63.05075073 C-12.59883819 55.49793461 -12.56819033 47.94506299 -12.54370117 40.39208984 C-12.52781775 35.77196944 -12.49758923 31.15211419 -12.45893669 26.5321312 C-12.44729212 24.77232556 -12.44135639 23.01247248 -12.44125557 21.25262833 C-12.44106331 18.78939424 -12.42278157 16.32689013 -12.40063477 13.86376953 C-12.40521194 13.13839996 -12.40978912 12.4130304 -12.414505 11.66567993 C-12.35194766 7.28457602 -11.69338191 4.4863569 -9 1 C-5.90826248 -0.54586876 -3.40570448 -0.29359521 0 0 Z M-4 100 C-15.24156387 115.65212323 -15.24156387 115.65212323 -18 134 C-15.42977112 140.1042936 -11.33643156 144.12095118 -6 148 C-5.01 148.33 -4.02 148.66 -3 149 C-1.20141396 147.42398147 0.58868298 145.83982215 2.375 144.25 C3.13683594 143.58484375 3.13683594 143.58484375 3.9140625 142.90625 C7.38772242 139.79823849 9.57535762 137.46739575 10.37109375 132.84375 C10.71937175 120.55158539 3.77667376 109.81667694 -3 100 C-3.33 100 -3.66 100 -4 100 Z " fill="#FFFFFF" transform="translate(1665,102)"/>
<path d="M0 0 C0.87454834 0.00523682 1.74909668 0.01047363 2.65014648 0.01586914 C3.59438477 0.0190918 4.53862305 0.02231445 5.51147461 0.02563477 C6.50469727 0.03401367 7.49791992 0.04239258 8.52124023 0.05102539 C9.51833008 0.05553711 10.51541992 0.06004883 11.54272461 0.06469727 C14.01478872 0.07652532 16.48673541 0.0930069 18.95874023 0.11352539 C22.81715407 9.86573111 26.66926698 19.62040441 30.51448059 29.37782288 C32.48568899 34.37944415 34.45899519 39.3802228 36.43579102 44.37963867 C38.52116217 49.65425277 40.60125152 54.93092421 42.67803955 60.20892334 C43.49032506 62.2707098 44.30441327 64.33178695 45.12030029 66.39215088 C46.26781566 69.29091849 47.40893379 72.19212704 48.54858398 75.09399414 C48.89474258 75.96419693 49.24090118 76.83439972 49.59754944 77.73097229 C49.91002121 78.53034714 50.22249298 79.32972198 50.54443359 80.15332031 C50.81895859 80.84922775 51.09348358 81.54513519 51.37632751 82.26213074 C51.95874023 84.11352539 51.95874023 84.11352539 51.95874023 87.11352539 C45.35874023 87.11352539 38.75874023 87.11352539 31.95874023 87.11352539 C30.80374023 84.18477539 29.64874023 81.25602539 28.45874023 78.23852539 C28.09329102 77.31700684 27.7278418 76.39548828 27.35131836 75.44604492 C27.06708008 74.7201416 26.7828418 73.99423828 26.48999023 73.24633789 C26.19672852 72.50270996 25.9034668 71.75908203 25.60131836 70.99291992 C24.95874023 69.11352539 24.95874023 69.11352539 24.95874023 67.11352539 C13.73874023 67.44352539 2.51874023 67.77352539 -9.04125977 68.11352539 C-11.30283909 73.99119193 -11.30283909 73.99119193 -13.55859375 79.87109375 C-13.84033447 80.59949463 -14.1220752 81.32789551 -14.41235352 82.07836914 C-14.70037842 82.82723389 -14.98840332 83.57609863 -15.28515625 84.34765625 C-16.04125977 86.11352539 -16.04125977 86.11352539 -17.04125977 87.11352539 C-18.456961 87.2000415 -19.87685477 87.22057443 -21.29516602 87.21118164 C-22.14916992 87.20795898 -23.00317383 87.20473633 -23.88305664 87.20141602 C-24.78088867 87.19303711 -25.6787207 87.1846582 -26.60375977 87.17602539 C-27.50545898 87.17151367 -28.4071582 87.16700195 -29.33618164 87.16235352 C-31.57127611 87.15052762 -33.80622469 87.13320784 -36.04125977 87.11352539 C-33.90818944 80.48438556 -31.50848197 73.98727378 -28.97875977 67.50024414 C-28.59054047 66.4997554 -28.20232117 65.49926666 -27.80233765 64.46846008 C-26.55086499 61.24511406 -25.29622982 58.02301119 -24.04125977 54.80102539 C-23.18129843 52.58947498 -22.32143547 50.3778863 -21.46166992 48.16625977 C-19.36763183 42.78182425 -17.2705442 37.39858283 -15.17224121 32.01580811 C-14.14420451 29.37769838 -13.11731473 26.73914686 -12.09106445 24.1003418 C-10.53642112 20.10331386 -8.9772233 16.10808945 -7.41625977 12.11352539 C-6.97411133 10.9774585 -6.53196289 9.8413916 -6.07641602 8.67089844 C-5.68067383 7.66196533 -5.28493164 6.65303223 -4.87719727 5.61352539 C-4.54252441 4.75758789 -4.20785156 3.90165039 -3.86303711 3.01977539 C-2.6241383 0.14594239 -2.6241383 0.14594239 0 0 Z M6.95874023 20.11352539 C5.39017311 24.50938167 3.82364505 28.90595702 2.2590332 33.30322266 C1.72607024 34.80016897 1.19254272 36.2969144 0.65844727 37.79345703 C-0.10751175 39.93998966 -0.87146205 42.0872278 -1.63500977 44.23461914 C-1.87562134 44.90754501 -2.11623291 45.58047089 -2.36413574 46.27378845 C-3.54103829 49.12485663 -3.54103829 49.12485663 -4.04125977 52.11352539 C3.54874023 52.11352539 11.13874023 52.11352539 18.95874023 52.11352539 C17.69807926 45.81022053 15.6151057 39.93213079 13.52124023 33.86352539 C13.11325195 32.65438477 12.70526367 31.44524414 12.28491211 30.19946289 C11.88981445 29.05219727 11.4947168 27.90493164 11.08764648 26.72290039 C10.54732788 25.14460449 10.54732788 25.14460449 9.99609375 23.53442383 C9.20457831 20.96728247 9.20457831 20.96728247 6.95874023 20.11352539 Z " fill="#FFFFFF" transform="translate(1714.041259765625,540.886474609375)"/>
<path d="M0 0 C4.1134534 8.2269068 4.60725398 18.19602729 2.15625 27.046875 C-3.1609953 38.90289493 -16.68043006 44.25951314 -28.1388855 48.85845947 C-33.77945616 50.96221562 -39.50232542 52.83059077 -45.22094727 54.70898438 C-67.67576388 61.75324435 -67.67576388 61.75324435 -84.19921875 77.203125 C-84.59560547 78.09257812 -84.59560547 78.09257812 -85 79 C-85.66 79 -86.32 79 -87 79 C-92.78543096 68.02534662 -96.46702803 57.62144319 -92.875 45.1875 C-88.03315118 32.82628228 -75.90115283 28.25587973 -64.57171631 23.19766235 C-55.33480525 19.16258347 -45.81745905 16.02174877 -36.25 12.875 C-32.73190071 11.71304121 -29.21608339 10.54460035 -25.703125 9.3671875 C-24.86704712 9.0871991 -24.03096924 8.80721069 -23.16955566 8.51873779 C-16.80631075 6.35323312 -10.66775722 3.84124409 -4.54589844 1.07080078 C-2 0 -2 0 0 0 Z " fill="#FFFFFF" transform="translate(685,243)"/>
<path d="M0 0 C0.98484375 -0.00128906 1.9696875 -0.00257813 2.984375 -0.00390625 C4.02078125 -0.00003906 5.0571875 0.00382812 6.125 0.0078125 C7.67960938 0.00201172 7.67960938 0.00201172 9.265625 -0.00390625 C10.25046875 -0.00261719 11.2353125 -0.00132812 12.25 0 C13.16007813 0.00112793 14.07015625 0.00225586 15.0078125 0.00341797 C17.125 0.1328125 17.125 0.1328125 18.125 1.1328125 C18.22347473 2.87676321 18.25132065 4.62473133 18.25198364 6.37145996 C18.25480347 7.50730026 18.25762329 8.64314056 18.26052856 9.81340027 C18.25850433 11.07058365 18.2564801 12.32776703 18.25439453 13.62304688 C18.25614685 14.93831863 18.25789917 16.25359039 18.25970459 17.60871887 C18.26427865 21.22638932 18.26248948 24.84403138 18.2593255 28.46170235 C18.25680176 32.23956506 18.25913948 36.01742528 18.26071167 39.79528809 C18.26253332 46.14071084 18.26012717 52.48612198 18.25537109 58.83154297 C18.24992848 66.17797893 18.25169114 73.52438714 18.2571975 80.87082243 C18.26172875 87.16719917 18.26237912 93.46356754 18.25975883 99.75994539 C18.25819612 103.5253676 18.25800212 107.29077674 18.26129532 111.05619812 C18.26470802 115.25167497 18.25998411 119.44710363 18.25439453 123.64257812 C18.25641876 124.89976151 18.25844299 126.15694489 18.26052856 127.45222473 C18.25629883 129.15598518 18.25629883 129.15598518 18.25198364 130.89416504 C18.25160662 131.88748085 18.25122959 132.88079666 18.25084114 133.90421295 C18.125 136.1328125 18.125 136.1328125 17.125 137.1328125 C15.49027118 137.21981592 13.85185945 137.23982313 12.21484375 137.23046875 C11.22548828 137.22724609 10.23613281 137.22402344 9.21679688 137.22070312 C8.17587891 137.21232422 7.13496094 137.20394531 6.0625 137.1953125 C5.01771484 137.19080078 3.97292969 137.18628906 2.89648438 137.18164062 C0.3059334 137.16981163 -2.28450559 137.15332939 -4.875 137.1328125 C-6.16578513 134.55124225 -6.00087682 132.70357822 -6.00198364 129.81187439 C-6.00621338 128.11867317 -6.00621338 128.11867317 -6.01052856 126.39126587 C-6.00850433 125.1470285 -6.0064801 123.90279114 -6.00439453 122.62084961 C-6.00614685 121.31518539 -6.00789917 120.00952118 -6.00970459 118.66429138 C-6.01427291 115.0776708 -6.01249194 111.49107891 -6.0093255 107.90445781 C-6.00679934 104.15729744 -6.00914011 100.41013958 -6.01071167 96.66297913 C-6.01253239 90.37061114 -6.01012938 84.07825488 -6.00537109 77.78588867 C-5.9999263 70.50134783 -6.0016931 63.21683496 -6.0071975 55.93229479 C-6.01172859 49.68685285 -6.01237927 43.44141936 -6.00975883 37.19597632 C-6.00819634 33.46186811 -6.00800158 29.72777307 -6.01129532 25.9936657 C-6.01470781 21.83422042 -6.00998438 17.67482376 -6.00439453 13.51538086 C-6.00641876 12.26911926 -6.00844299 11.02285767 -6.01052856 9.73883057 C-6.00770874 8.61284958 -6.00488892 7.48686859 -6.00198364 6.32676697 C-6.00160662 5.34212432 -6.00122959 4.35748167 -6.00084114 3.34300137 C-5.76596195 -0.78225827 -3.61202668 0.00447666 0 0 Z " fill="#FFFFFF" transform="translate(617.875,369.8671875)"/>
<path d="M0 0 C7.59 0 15.18 0 23 0 C23.02311825 17.71492514 23.04097884 35.42984512 23.05181217 53.14478207 C23.05697527 61.36955719 23.06401823 69.59432279 23.07543945 77.8190918 C23.08538586 84.98520446 23.09185332 92.15131023 23.09408849 99.3174296 C23.09539568 103.11416989 23.09848198 106.91089045 23.10573006 110.70762444 C23.1124896 114.27718902 23.1146171 117.84672563 23.11310768 121.41629601 C23.11351636 123.35914846 23.1189119 125.30199784 23.12442017 127.24484253 C23.1230455 128.39054214 23.12167084 129.53624176 23.12025452 130.71665955 C23.12117631 131.71864852 23.1220981 132.72063749 23.12304783 133.75298977 C23 136 23 136 22 137 C20.45044441 137.09899523 18.89646327 137.13079524 17.34375 137.1328125 C15.93416016 137.13474609 15.93416016 137.13474609 14.49609375 137.13671875 C13.50738281 137.13285156 12.51867187 137.12898437 11.5 137.125 C10.51128906 137.12886719 9.52257812 137.13273438 8.50390625 137.13671875 C7.56417969 137.13542969 6.62445312 137.13414062 5.65625 137.1328125 C4.78806641 137.13168457 3.91988281 137.13055664 3.02539062 137.12939453 C1 137 1 137 0 136 C-0.09632045 134.2410657 -0.1218751 132.47822841 -0.12025452 130.71665955 C-0.12162918 129.57095993 -0.12300385 128.42526031 -0.12442017 127.24484253 C-0.12082489 125.97673737 -0.11722961 124.7086322 -0.11352539 123.40209961 C-0.11324352 122.06206769 -0.11340125 120.72203561 -0.1139679 119.38200378 C-0.11425587 115.73340562 -0.1083592 112.08484005 -0.10139394 108.43624949 C-0.09516034 104.62722484 -0.0945566 100.8181995 -0.09336853 97.00917053 C-0.09025523 89.79142246 -0.08204186 82.57368946 -0.07201904 75.35594803 C-0.06085786 67.14084743 -0.05534744 58.92574612 -0.05032361 50.71063983 C-0.03985925 33.80708425 -0.02205939 16.90354429 0 0 Z " fill="#FFFFFF" transform="translate(566,370)"/>
<path d="M0 0 C4.05181951 4.27692059 5.97353791 9.12380873 6.6875 14.9375 C5.35092492 25.43916134 -0.48303969 31.10803969 -7.75 38.375 C-4.12 42.335 -0.49 46.295 3.25 50.375 C5.93617416 47.68882584 8.08833937 45.40132489 10.25 42.375 C14.6390815 42.88535831 17.58708062 43.89714277 21.25 46.375 C20.60403956 51.69247142 18.0489999 54.2355205 14.55078125 58.09375 C12.94820629 60.31456301 12.94820629 60.31456301 13.78515625 62.85546875 C15.39920246 65.63162824 17.19471312 67.83138353 19.375 70.1875 C20.46167969 71.37279297 20.46167969 71.37279297 21.5703125 72.58203125 C22.12460937 73.17371094 22.67890625 73.76539063 23.25 74.375 C22.92 75.035 22.59 75.695 22.25 76.375 C9.65717489 77.14181614 9.65717489 77.14181614 6.20703125 75.26171875 C4.875 73.875 4.875 73.875 3.25 71.375 C2.53714844 71.66117188 1.82429687 71.94734375 1.08984375 72.2421875 C0.15269531 72.61601563 -0.78445313 72.98984375 -1.75 73.375 C-2.61496094 73.72820312 -3.47992187 74.08140625 -4.37109375 74.4453125 C-14.31384383 78.16867245 -24.85095316 79.30075616 -34.91796875 75.28515625 C-40.17712854 72.6723967 -42.49434268 69.72901808 -44.75 64.375 C-45.1484375 60.9375 -45.1484375 60.9375 -45.125 57.375 C-45.13273438 56.199375 -45.14046875 55.02375 -45.1484375 53.8125 C-44.46701288 47.93354248 -41.97537926 44.19680873 -37.75 40.1875 C-37.069375 39.53394531 -36.38875 38.88039063 -35.6875 38.20703125 C-35.048125 37.60246094 -34.40875 36.99789062 -33.75 36.375 C-32.7466462 35.37836509 -31.74532354 34.3796547 -30.75 33.375 C-31.24371094 32.68792969 -31.73742187 32.00085938 -32.24609375 31.29296875 C-32.88675781 30.39191406 -33.52742187 29.49085938 -34.1875 28.5625 C-34.82558594 27.66917969 -35.46367188 26.77585937 -36.12109375 25.85546875 C-39.66526062 20.45847604 -39.30901491 14.62138396 -38.75 8.375 C-37.20395617 2.90968583 -33.45436102 0.09515045 -28.75 -2.6796875 C-19.34936436 -7.12295669 -8.60479154 -5.08464955 0 0 Z M-24.75 12.375 C-25.66955603 15.19991198 -25.66955603 15.19991198 -24.75 18.375 C-22.96187185 21.22982131 -20.93406153 23.81392784 -18.75 26.375 C-14.452821 25.52470713 -12.5928966 23.74158808 -9.75 20.375 C-7.86139483 16.36813552 -7.86139483 16.36813552 -8.375 12.125 C-10.77269754 9.07338495 -12.88444981 8.48549577 -16.6875 8 C-20.5842409 8.47715195 -22.14001883 9.45796223 -24.75 12.375 Z M-25.25 47.125 C-25.8584375 47.63546875 -26.466875 48.1459375 -27.09375 48.671875 C-29.73647427 51.38939335 -30.65673775 53.628902 -31.125 57.375 C-31.0001021 60.46432218 -31.0001021 60.46432218 -28.9375 62.6875 C-25.00816044 65.71870481 -21.58132534 65.76462301 -16.75 65.375 C-13.64279235 64.24375906 -10.69665588 62.8717141 -7.75 61.375 C-7.75 57.26924733 -9.92953726 55.67441998 -12.625 52.875 C-15.24705951 50.09606513 -17.62969263 47.55546105 -19.75 44.375 C-22.4499944 44.375 -23.21966032 45.38716689 -25.25 47.125 Z " fill="#FFFFFF" transform="translate(915.75,547.625)"/>
<path d="M0 0 C43.82978723 0 43.82978723 0 51.0625 6.9375 C55.44052558 13.85760494 55.65042493 19.94082859 55 28 C53.37031634 32.80327816 50.71140634 35.5895185 47 39 C48.3921875 40.051875 48.3921875 40.051875 49.8125 41.125 C53.04457439 43.56701176 54.49197434 46.25440235 56 50 C56.3984375 53.65625 56.3984375 53.65625 56.375 57.5 C56.38660156 59.40265625 56.38660156 59.40265625 56.3984375 61.34375 C55.81426337 66.70440673 53.94050616 70.68702922 49.8125 74.1875 C49.28269531 74.65542969 48.75289063 75.12335938 48.20703125 75.60546875 C33.55095262 84.86603525 17.4685071 80 0 80 C0 53.6 0 27.2 0 0 Z M14 12 C14 18.93 14 25.86 14 33 C17.17625 33.0825 20.3525 33.165 23.625 33.25 C25.1092749 33.30462402 25.1092749 33.30462402 26.62353516 33.36035156 C32.40954762 33.43286678 35.5990505 32.84548985 40 29 C41.60430264 25.79139471 41.48105318 22.4809543 41 19 C38.60773511 14.92428945 36.46861443 13.33107664 32 12 C28.88953295 11.76685116 25.80433549 11.81153439 22.6875 11.875 C18.3871875 11.936875 18.3871875 11.936875 14 12 Z M14 45 C14 52.59 14 60.18 14 68 C16.825625 68.061875 19.65125 68.12375 22.5625 68.1875 C23.43849854 68.21481201 24.31449707 68.24212402 25.21704102 68.27026367 C30.58722113 68.32666421 34.24984574 67.54647445 39 65 C42.03033429 61.57865483 42.5357045 58.36583557 42.3515625 53.9296875 C41.77369682 50.757847 40.33425716 49.14499307 38 47 C33.25448439 44.37171443 28.44925568 44.77376932 23.1875 44.875 C20.155625 44.91625 17.12375 44.9575 14 45 Z " fill="#FFFFFF" transform="translate(353,544)"/>
<path d="M0 0 C0.09688221 5.44693314 0.12862175 10.63904667 -1 16 C-1.62003906 15.7834375 -2.24007813 15.566875 -2.87890625 15.34375 C-12.20265326 12.41226622 -22.83359975 10.8780259 -32.125 14.6875 C-38.78323672 18.24772039 -43.26912082 23.9005493 -46.1875 30.8125 C-48.75749221 40.89477713 -48.39945828 50.92570133 -43.2578125 60.21875 C-38.96179028 66.30255786 -32.84229896 70.07911906 -25.53515625 71.46875 C-18.41280679 72.36798494 -11.98594789 71.46124412 -5 70 C-3.35 69.67 -1.7 69.34 0 69 C0 74.28 0 79.56 0 85 C-17.75296907 89.11663051 -36.07826958 88.50167783 -52 79 C-60.01555285 73.60491635 -65.02940785 64.37480234 -67 55 C-69.13550387 40.49636954 -67.53786815 27.54804853 -60.1875 14.875 C-45.65645026 -4.22295109 -21.9644559 -6.22264518 0 0 Z " fill="#FFFFFF" transform="translate(1552,542)"/>
<path d="M0 0 C1.47668858 0.0133035 2.95331108 0.03716415 4.4296875 0.0703125 C5.18378906 0.07933594 5.93789062 0.08835937 6.71484375 0.09765625 C8.57826004 0.1212438 10.44151343 0.15711531 12.3046875 0.1953125 C15.36594973 6.70060436 17.78511749 13.28485477 19.984375 20.125 C20.31962189 21.15480988 20.65486877 22.18461975 21.00027466 23.24563599 C22.0646051 26.51907899 23.12216791 29.79466371 24.1796875 33.0703125 C24.88108446 35.22930509 25.58290411 37.38816042 26.28515625 39.546875 C27.98277888 44.77027575 29.66598396 49.99819712 31.34558105 55.22741699 C32.2805557 58.12063815 33.23070264 61.00846833 34.18457031 63.89550781 C34.74821712 65.62299134 35.3117034 67.35052725 35.875 69.078125 C36.13828094 69.86242889 36.40156189 70.64673279 36.67282104 71.45480347 C38.41794258 76.85554725 38.41794258 76.85554725 37.3046875 80.1953125 C32.6846875 80.1953125 28.0646875 80.1953125 23.3046875 80.1953125 C19.3046875 69.5703125 19.3046875 69.5703125 19.3046875 66.1953125 C9.4046875 66.1953125 -0.4953125 66.1953125 -10.6953125 66.1953125 C-11.6853125 70.1553125 -12.6753125 74.1153125 -13.6953125 78.1953125 C-14.1903125 79.1853125 -14.1903125 79.1853125 -14.6953125 80.1953125 C-19.6453125 80.1953125 -24.5953125 80.1953125 -29.6953125 80.1953125 C-28.19580715 72.78656585 -26.04452414 65.70627146 -23.703125 58.5234375 C-23.31591278 57.32402527 -22.92870056 56.12461304 -22.52975464 54.88885498 C-21.50506413 51.71682201 -20.47698031 48.54593355 -19.44702148 45.37561035 C-18.00472503 40.93325861 -16.56879553 36.48884494 -15.1322937 32.0446167 C-14.37009276 29.68776884 -13.60661101 27.33133463 -12.84158325 24.97540283 C-12.48796722 23.88427185 -12.1343512 22.79314087 -11.77001953 21.66894531 C-11.42682678 20.61050415 -11.08363403 19.55206299 -10.7300415 18.46154785 C-9.29066341 13.91799336 -7.94736408 9.34646874 -6.61593628 4.77020264 C-5.15364414 0.68032175 -4.40274732 0.23270335 0 0 Z M3.3046875 19.1953125 C1.87520479 23.83847003 0.4511905 28.48325575 -0.96777344 33.12963867 C-1.45129717 34.71017717 -1.9363143 36.2902596 -2.42285156 37.86987305 C-3.12176976 40.13993084 -3.81530795 42.41157242 -4.5078125 44.68359375 C-4.72655029 45.38994461 -4.94528809 46.09629547 -5.1706543 46.8240509 C-6.05064829 49.72703512 -6.6953125 52.14273171 -6.6953125 55.1953125 C0.5646875 55.1953125 7.8246875 55.1953125 15.3046875 55.1953125 C13.40578323 47.04119415 11.13753958 39.02880943 8.7421875 31.0078125 C8.43724365 29.9674585 8.1322998 28.92710449 7.81811523 27.85522461 C7.52364502 26.88077393 7.2291748 25.90632324 6.92578125 24.90234375 C6.6620874 24.0203833 6.39839355 23.13842285 6.12670898 22.22973633 C5.49216592 20.01332254 5.49216592 20.01332254 3.3046875 19.1953125 Z " fill="#FFFFFF" transform="translate(1097.6953125,543.8046875)"/>
<path d="M0 0 C0.886875 -0.00257813 1.77375 -0.00515625 2.6875 -0.0078125 C4.0796875 0.00378906 4.0796875 0.00378906 5.5 0.015625 C6.428125 0.00789063 7.35625 0.00015625 8.3125 -0.0078125 C9.6428125 -0.00394531 9.6428125 -0.00394531 11 0 C11.8146875 0.00225586 12.629375 0.00451172 13.46875 0.00683594 C15.5 0.265625 15.5 0.265625 17.5 2.265625 C17.69371373 5.32879587 17.76212164 8.30126954 17.74291992 11.36523438 C17.74481827 12.30841019 17.74671661 13.251586 17.74867249 14.2233429 C17.75238792 17.35210387 17.7416651 20.48063453 17.73046875 23.609375 C17.72927727 25.77648898 17.72882372 27.94360348 17.7290802 30.11071777 C17.727514 34.65701521 17.71921396 39.20323405 17.70581055 43.74951172 C17.68882054 49.58746204 17.68499614 55.42532589 17.68575573 61.26329803 C17.68548425 65.73957144 17.68000665 70.21582581 17.67275429 74.6920929 C17.66956411 76.84515743 17.6675994 78.99822412 17.66686058 81.15129089 C17.66470072 84.15623679 17.6559641 87.16108961 17.64526367 90.16601562 C17.64594345 91.51104912 17.64594345 91.51104912 17.64663696 92.883255 C17.61447618 99.03667265 17.61447618 99.03667265 16.5 101.265625 C12.85418313 101.29450012 9.20839537 101.31238085 5.5625 101.328125 C4.00112305 101.34069336 4.00112305 101.34069336 2.40820312 101.35351562 C1.41884766 101.35673828 0.42949219 101.35996094 -0.58984375 101.36328125 C-1.96450806 101.37113647 -1.96450806 101.37113647 -3.36694336 101.37915039 C-5.5 101.265625 -5.5 101.265625 -6.5 100.265625 C-6.60597403 97.23233442 -6.6467752 94.22168804 -6.64526367 91.18774414 C-6.64862228 90.23496078 -6.6519809 89.28217743 -6.65544128 88.30052185 C-6.66498238 85.13392859 -6.66689596 81.96738801 -6.66796875 78.80078125 C-6.67117909 76.60981728 -6.67454298 74.41885352 -6.67805481 72.22789001 C-6.68405396 67.6285655 -6.6858939 63.0292598 -6.68530273 58.42993164 C-6.68520106 52.52354343 -6.69885566 46.61727529 -6.71607494 40.71091557 C-6.72716913 36.18403057 -6.72922274 31.65717484 -6.72869301 27.13027763 C-6.72987694 24.95208764 -6.73432166 22.77389698 -6.74202538 20.59572029 C-6.75177351 17.55469369 -6.74896781 14.51393083 -6.74291992 11.47290039 C-6.74853943 10.56528961 -6.75415894 9.65767883 -6.75994873 8.7225647 C-6.72872603 2.57484057 -6.48706865 0.01796261 0 0 Z " fill="#FFFFFF" transform="translate(666.5,405.734375)"/>
<path d="M0 0 C4.66902693 3.86712343 8.00327679 7.25173277 9.55859375 13.265625 C9.76691012 16.64332612 9.69796865 19.87416918 9.55859375 23.265625 C5.26859375 23.265625 0.97859375 23.265625 -3.44140625 23.265625 C-3.99828125 21.698125 -4.55515625 20.130625 -5.12890625 18.515625 C-6.89022669 14.19182796 -8.13812516 11.46507978 -12.44140625 9.265625 C-17.09430167 8.02134788 -20.59894615 8.03084104 -25.25390625 9.328125 C-29.03778044 11.62812696 -30.35313405 13.36929605 -32.44140625 17.265625 C-32.99300837 20.17147655 -33.00323932 23.00163023 -32.97265625 25.953125 C-32.97648315 26.77385498 -32.98031006 27.59458496 -32.98425293 28.44018555 C-32.9869639 30.16814406 -32.97965989 31.89614417 -32.96289062 33.62402344 C-32.94146746 36.2580985 -32.96271807 38.88944654 -32.98828125 41.5234375 C-32.98563783 43.20833931 -32.98051254 44.89323943 -32.97265625 46.578125 C-32.98480164 47.75024536 -32.98480164 47.75024536 -32.99719238 48.94604492 C-32.90868043 54.14760673 -31.8963217 57.15337216 -28.44140625 61.265625 C-23.72618276 64.13174124 -19.92745906 64.76419582 -14.5859375 63.890625 C-10.86899707 62.80736367 -8.9733792 61.15930837 -6.44140625 58.265625 C-5.1214104 55.28063439 -4.29332073 52.43664001 -3.44140625 49.265625 C0.84859375 49.265625 5.13859375 49.265625 9.55859375 49.265625 C10.01700655 57.51705532 9.42044573 62.92431059 3.828125 69.2109375 C-2.85292824 75.58527572 -9.20017244 77.38465395 -18.31640625 77.703125 C-26.5105304 77.50844818 -32.90719477 75.49086926 -39.81640625 71.140625 C-48.52773394 61.59964705 -48.22464664 51.56743272 -48.09326172 39.26171875 C-48.06646472 36.27214807 -48.09308235 33.28633098 -48.125 30.296875 C-48.16083863 10.52128441 -48.16083863 10.52128441 -40.9987793 2.68774414 C-30.42627373 -6.92817673 -11.68677349 -8.30228389 0 0 Z " fill="#FFFFFF" transform="translate(1020.44140625,547.734375)"/>
<path d="M0 0 C5.61540619 4.32879278 7.94543076 9.93339605 9.69921875 16.65625 C10.07506483 21.35432601 10.22191215 26.07327861 9.94921875 30.78125 C8.94921875 31.78125 8.94921875 31.78125 5.53100586 31.89477539 C4.01284887 31.89461628 2.49468646 31.88892226 0.9765625 31.87890625 C0.17891983 31.8774913 -0.61872284 31.87607635 -1.4405365 31.87461853 C-3.9981556 31.86900316 -6.55568843 31.85644812 -9.11328125 31.84375 C-10.8430977 31.83873698 -12.57291551 31.83417373 -14.30273438 31.83007812 C-18.55211678 31.81902875 -22.80143437 31.80175386 -27.05078125 31.78125 C-25.81284079 36.86451563 -25.81284079 36.86451563 -22.98828125 41.15625 C-19.03714206 43.34198657 -15.55530185 43.99575098 -11.05078125 43.78125 C-7.81976613 42.58457773 -5.7792905 41.59718036 -3.48828125 39.03125 C-2.05078125 37.78125 -2.05078125 37.78125 0.32421875 37.78125 C3.8586557 39.12770217 5.64455162 40.7987396 7.94921875 43.78125 C8.26171875 46.21875 8.26171875 46.21875 6.94921875 48.78125 C0.4538806 55.10442256 -5.99068889 56.84946571 -14.92578125 57.15625 C-22.24922088 57.01646006 -27.50012572 55.92194726 -33.046875 51.015625 C-40.80858985 42.81822138 -42.37889315 33.35574707 -42.1953125 22.32421875 C-41.73023208 14.14131732 -39.35598168 8.10179979 -34.05078125 1.78125 C-24.57535574 -6.25226294 -10.4926106 -6.23560859 0 0 Z M-26.05078125 13.78125 C-26.38078125 16.09125 -26.71078125 18.40125 -27.05078125 20.78125 C-19.79078125 20.78125 -12.53078125 20.78125 -5.05078125 20.78125 C-5.74415647 13.83968034 -5.74415647 13.83968034 -10.05078125 9.78125 C-16.53253624 6.5403725 -21.6874071 8.77933329 -26.05078125 13.78125 Z " fill="#FFFFFF" transform="translate(605.05078125,568.21875)"/>
<path d="M0 0 C5.7848588 4.7787964 9.38189563 10.23842754 10.1171875 17.76171875 C10.38826845 26.22848039 9.8130338 32.09503331 4.03125 38.4140625 C-1.73966941 43.88961989 -7.24104305 46.55501407 -15.203125 46.859375 C-22.67212521 46.58486351 -28.16560458 44.21059237 -33.6640625 39.1640625 C-39.30400436 33.008796 -40.58447042 26.46716632 -40.4765625 18.36328125 C-39.79059838 11.14105907 -36.34302699 5.72884095 -31.02734375 0.92578125 C-22.47427671 -5.83242376 -9.04706176 -6.05404885 0 0 Z " fill="#FFFFFF" transform="translate(678.203125,136.515625)"/>
<path d="M0 0 C6.14002414 5.00806438 9.51404895 10.69572855 10.72265625 18.5234375 C11.3763517 29.52312056 11.18918048 40.0448887 4.10546875 49.05859375 C-0.39567903 53.82675877 -5.95099516 56.16450905 -12.390625 56.859375 C-19.63658374 56.94784824 -25.0257861 56.2796255 -31.27734375 52.5234375 C-32.18484375 51.9871875 -33.09234375 51.4509375 -34.02734375 50.8984375 C-41.8492433 42.64198797 -42.74974819 32.44783463 -42.55859375 21.62109375 C-42.23983627 14.73752588 -40.23718324 8.9474495 -35.90234375 3.5859375 C-25.1472295 -4.86450941 -12.28491072 -7.96517368 0 0 Z M-25.27734375 12.5234375 C-28.76856605 19.38549513 -29.39895871 26.31531844 -27.7734375 33.86328125 C-26.28744778 38.42314685 -24.41187294 41.11964146 -20.27734375 43.5234375 C-16.47317091 44.73753521 -14.83108569 44.7405912 -11.08984375 43.2734375 C-6.74258038 40.56847362 -4.90840721 38.80462831 -3.62890625 33.67578125 C-2.39312005 26.11002351 -2.78957267 19.37871169 -6.27734375 12.5234375 C-8.51397873 9.89210223 -10.00865514 8.74488133 -13.42578125 8.1484375 C-18.58765542 7.87405216 -21.7909025 8.42174191 -25.27734375 12.5234375 Z " fill="#FFFFFF" transform="translate(491.27734375,568.4765625)"/>
<path d="M0 0 C4.29 0 8.58 0 13 0 C15.13245196 4.76113487 16.82228183 9.43724522 18.26171875 14.46484375 C18.45723831 15.14301651 18.65275787 15.82118927 18.85420227 16.51991272 C19.4695534 18.65791506 20.07862934 20.79764421 20.6875 22.9375 C21.10700582 24.39920801 21.52692399 25.86079775 21.94726562 27.32226562 C22.9696086 30.88015725 23.98633711 34.43962432 25 38 C26.08546072 34.45898186 27.16832333 30.91717587 28.25 27.375 C28.5692041 26.33005371 28.8884082 25.28510742 29.21728516 24.20849609 C31.32657175 17.27920603 33.35628488 10.33666638 35.2734375 3.3515625 C36 1 36 1 37 0 C39.35313555 -0.07271741 41.70833668 -0.08370868 44.0625 -0.0625 C45.35285156 -0.05347656 46.64320313 -0.04445313 47.97265625 -0.03515625 C48.97167969 -0.02355469 49.97070312 -0.01195312 51 0 C49.48676066 7.54670005 47.25045184 14.7317601 44.82421875 22.03125 C44.41718216 23.26234497 44.01014557 24.49343994 43.59077454 25.76184082 C42.73239647 28.35482746 41.87037549 30.94656995 41.00610352 33.53759766 C39.90769181 36.83252788 38.82173394 40.13141551 37.73890972 43.43149567 C36.69219346 46.61330973 35.63237806 49.79072341 34.57421875 52.96875 C34.19069748 54.14087036 33.80717621 55.31299072 33.41203308 56.52062988 C27.24628976 74.8655177 27.24628976 74.8655177 19 80 C13.79907136 81.61203335 8.44625919 82.41894301 3 82 C2 81 2 81 1.90234375 78.49609375 C1.91394531 77.48675781 1.92554688 76.47742188 1.9375 75.4375 C1.94652344 74.42558594 1.95554687 73.41367187 1.96484375 72.37109375 C1.97644531 71.58863281 1.98804688 70.80617188 2 70 C2.75925781 69.82984375 3.51851562 69.6596875 4.30078125 69.484375 C5.29464844 69.24203125 6.28851562 68.9996875 7.3125 68.75 C8.29863281 68.51796875 9.28476562 68.2859375 10.30078125 68.046875 C13.46394009 66.82006376 14.41522097 65.97466613 16 63 C17.07248771 58.54778918 16.94003074 55.71843363 15.4453125 51.40942383 C15.08163574 50.33843948 14.71795898 49.26745514 14.34326172 48.16401672 C13.94123535 47.02321152 13.53920898 45.88240631 13.125 44.70703125 C12.52002686 42.93255867 12.52002686 42.93255867 11.90283203 41.12223816 C10.83326878 37.98829629 9.75317658 34.85846372 8.66625977 31.73052979 C7.13221237 27.31431144 5.60828246 22.89474697 4.09716797 18.47062683 C3.29279228 16.11700245 2.4795414 13.76638951 1.65673828 11.41914368 C1.29306152 10.35761581 0.92938477 9.29608795 0.5546875 8.20239258 C0.22968262 7.26784744 -0.09532227 6.33330231 -0.43017578 5.37043762 C-1 3 -1 3 0 0 Z " fill="#FFFFFF" transform="translate(791,565)"/>
<path d="M0 0 C3.88010343 2.34917827 6.26071994 4.68634769 8.1875 8.875 C9 12.6875 9 12.6875 9.1875 15.875 C7.38180245 17.68069755 4.81668533 17.21506878 2.375 17.3125 C-0.91796875 17.3046875 -0.91796875 17.3046875 -3.8125 16.875 C-6.4375 13.9375 -6.4375 13.9375 -7.8125 10.875 C-10.13845946 9.71202027 -11.59973231 9.70899309 -14.1875 9.6875 C-14.95835937 9.67332031 -15.72921875 9.65914062 -16.5234375 9.64453125 C-19.03084888 9.89698393 -20.64511902 10.62306533 -22.8125 11.875 C-22.8125 13.525 -22.8125 15.175 -22.8125 16.875 C-22.16925781 17.10574219 -21.52601563 17.33648438 -20.86328125 17.57421875 C-18.9391961 18.26864606 -17.01751995 18.96976686 -15.09765625 19.67578125 C-12.88324831 20.48413231 -10.66158027 21.27283237 -8.43359375 22.04296875 C-0.80306447 24.77510496 5.73492123 27.2764148 9.6875 34.6875 C10.48194021 39.75205635 10.642739 44.34054014 8.0234375 48.90234375 C3.49710506 54.62682301 -1.69797255 56.66084412 -8.8125 57.875 C-17.93743129 58.60387316 -26.63492559 57.84343775 -33.875 51.8125 C-36.17641748 49.68436572 -37.71944313 48.21337671 -37.9453125 44.96484375 C-37.92361111 38.98611111 -37.92361111 38.98611111 -36.8125 37.875 C-33.08707274 37.38853925 -29.52738266 37.28127242 -25.8125 37.875 C-23.375 40.75 -23.375 40.75 -21.8125 43.875 C-18.4030957 46.46144464 -14.9738551 46.24003115 -10.8125 45.875 C-7.94103006 44.50502843 -7.94103006 44.50502843 -5.8125 42.875 C-5.94644867 40.42642151 -5.94644867 40.42642151 -6.8125 37.875 C-8.8556168 36.54830267 -8.8556168 36.54830267 -11.4765625 35.84765625 C-12.43433594 35.52990234 -13.39210938 35.21214844 -14.37890625 34.88476562 C-15.38824219 34.57216797 -16.39757812 34.25957031 -17.4375 33.9375 C-32.84364283 29.11426966 -32.84364283 29.11426966 -36.97583008 21.82202148 C-38.95126467 17.22497134 -38.2821667 12.23181491 -36.6875 7.625 C-28.96655299 -3.69905562 -12.01415909 -5.56841054 0 0 Z " fill="#FFFFFF" transform="translate(703.8125,567.125)"/>
<path d="M0 0 C19.47 0 38.94 0 59 0 C59 3.96 59 7.92 59 12 C51.74 12.33 44.48 12.66 37 13 C36.67 35.11 36.34 57.22 36 80 C31.38 80 26.76 80 22 80 C22 57.56 22 35.12 22 12 C14.74 12 7.48 12 0 12 C0 8.04 0 4.08 0 0 Z " fill="#FFFFFF" transform="translate(1133,544)"/>
<path d="M0 0 C4.62 0 9.24 0 14 0 C17.15507983 6.69710341 19.07728293 13.71299742 21.125 20.8125 C21.83431889 23.25698067 22.54517606 25.70101568 23.2578125 28.14453125 C23.5686377 29.22065674 23.87946289 30.29678223 24.19970703 31.40551758 C24.90747676 33.95137661 24.90747676 33.95137661 26 36 C26.29245605 34.94498291 26.58491211 33.88996582 26.88623047 32.80297852 C27.97035951 28.90016469 29.06487353 25.00032811 30.16259766 21.10131836 C30.63680615 19.41136149 31.10817042 17.72060388 31.57666016 16.02905273 C32.24941986 13.60185519 32.93225849 11.1776937 33.6171875 8.75390625 C33.82560272 7.99348526 34.03401794 7.23306427 34.24874878 6.44960022 C34.77260999 4.61489927 35.37898121 2.80413243 36 1 C38.88415883 -0.44207941 41.41721528 -0.09394887 44.625 -0.0625 C45.81351563 -0.05347656 47.00203125 -0.04445313 48.2265625 -0.03515625 C49.14179687 -0.02355469 50.05703125 -0.01195312 51 0 C52.16289101 3.40469865 51.83181556 5.37003832 50.69238281 8.74926758 C50.38165833 9.68736771 50.07093384 10.62546783 49.75079346 11.59199524 C49.40506287 12.59933212 49.05933228 13.60666901 48.703125 14.64453125 C48.35368835 15.6876799 48.00425171 16.73082855 47.64422607 17.80558777 C46.90246427 20.01372052 46.15568533 22.22017327 45.40429688 24.42504883 C44.2590979 27.78580091 43.12816685 31.15107499 42 34.51757812 C41.27687449 36.66434321 40.55294207 38.8108367 39.828125 40.95703125 C39.49049133 41.95829544 39.15285767 42.95955963 38.80499268 43.99116516 C37.06260627 49.09738413 35.20895608 54.0769025 33 59 C30.73078464 59.13489391 28.4592933 59.23193995 26.1875 59.3125 C24.92292969 59.37050781 23.65835938 59.42851563 22.35546875 59.48828125 C21.24816406 59.32714844 20.14085937 59.16601562 19 59 C16.74334459 55.86388368 15.3915545 52.6663533 14.19067383 49.01367188 C13.87056839 48.04917114 13.55046295 47.08467041 13.22065735 46.09094238 C12.88616074 45.0606189 12.55166412 44.03029541 12.20703125 42.96875 C11.85613937 41.9000769 11.5052475 40.83140381 11.14372253 39.73034668 C10.40531522 37.47537186 9.67005771 35.21936349 8.93774414 32.96240234 C7.81553019 29.50932396 6.67893574 26.06121116 5.54101562 22.61328125 C4.82464711 20.41955596 4.10912357 18.22555452 3.39453125 16.03125 C3.05396194 15.00092651 2.71339264 13.97060303 2.36250305 12.90905762 C2.0518541 11.94455688 1.74120514 10.98005615 1.42114258 9.98632812 C1.14595291 9.14203247 0.87076324 8.29773682 0.5872345 7.42785645 C0 5 0 5 0 0 Z " fill="#FFFFFF" transform="translate(507,565)"/>
<path d="M0 0 C5.94 0 11.88 0 18 0 C18 28.71 18 57.42 18 87 C12.06 87 6.12 87 0 87 C0 58.29 0 29.58 0 0 Z " fill="#FFFFFF" transform="translate(1652,541)"/>
<path d="M0 0 C1.093125 0.00257813 2.18625 0.00515625 3.3125 0.0078125 C4.405625 0.00523437 5.49875 0.00265625 6.625 0 C9.3125 0.1328125 9.3125 0.1328125 10.3125 1.1328125 C10.38521741 3.48594805 10.39620868 5.84114918 10.375 8.1953125 C10.36597656 9.48566406 10.35695313 10.77601563 10.34765625 12.10546875 C10.33605469 13.10449219 10.32445312 14.10351562 10.3125 15.1328125 C11.16714844 15.12121094 12.02179687 15.10960937 12.90234375 15.09765625 C14.00707031 15.08863281 15.11179687 15.07960938 16.25 15.0703125 C17.35214844 15.05871094 18.45429687 15.04710937 19.58984375 15.03515625 C22.3125 15.1328125 22.3125 15.1328125 23.3125 16.1328125 C23.45560287 19.8019702 23.35471662 23.45996691 23.3125 27.1328125 C19.0225 27.1328125 14.7325 27.1328125 10.3125 27.1328125 C10.3813642 31.4933242 10.46932189 35.85290648 10.57495117 40.21264648 C10.60819423 41.69561104 10.63622823 43.17870194 10.65893555 44.66186523 C10.69249468 46.79465543 10.74480638 48.92628862 10.80078125 51.05859375 C10.82696533 52.34161377 10.85314941 53.62463379 10.88012695 54.9465332 C11.04819588 58.09257506 11.04819588 58.09257506 12.71679688 60.04296875 C14.69260861 61.39242156 16.12598795 61.62572135 18.5 61.8203125 C19.758125 61.9234375 21.01625 62.0265625 22.3125 62.1328125 C22.3125 66.0928125 22.3125 70.0528125 22.3125 74.1328125 C19.77017658 74.21433594 17.23050798 74.27354966 14.6875 74.3203125 C13.97464844 74.34544922 13.26179687 74.37058594 12.52734375 74.39648438 C7.69870685 74.46293351 4.52000576 73.75377763 0.3125 71.1328125 C-3.9503968 66.42892638 -3.82460664 61.81387177 -3.78515625 55.74609375 C-3.7837413 54.92908493 -3.78232635 54.11207611 -3.78086853 53.27030945 C-3.77527294 50.66193982 -3.76272129 48.05365616 -3.75 45.4453125 C-3.74498443 43.67643353 -3.74042162 41.90755322 -3.73632812 40.13867188 C-3.72530496 35.80335231 -3.70804338 31.46809698 -3.6875 27.1328125 C-6.3275 27.1328125 -8.9675 27.1328125 -11.6875 27.1328125 C-11.71437279 25.32039198 -11.73383715 23.50786017 -11.75 21.6953125 C-11.76160156 20.68597656 -11.77320313 19.67664063 -11.78515625 18.63671875 C-11.6875 16.1328125 -11.6875 16.1328125 -10.6875 15.1328125 C-8.35452567 15.09188313 -6.02044775 15.09039527 -3.6875 15.1328125 C-3.69910156 14.13378906 -3.71070313 13.13476562 -3.72265625 12.10546875 C-3.73167969 10.81511719 -3.74070312 9.52476562 -3.75 8.1953125 C-3.76160156 6.90753906 -3.77320313 5.61976563 -3.78515625 4.29296875 C-3.65807987 0.1807772 -3.65807987 0.1807772 0 0 Z " fill="#FFFFFF" transform="translate(760.6875,549.8671875)"/>
<path d="M0 0 C1.1859375 0.00257813 2.371875 0.00515625 3.59375 0.0078125 C4.7796875 0.00523437 5.965625 0.00265625 7.1875 0 C10.09375 0.1328125 10.09375 0.1328125 11.09375 1.1328125 C11.19404857 3.56138285 11.22993425 5.96152863 11.22314453 8.390625 C11.22489685 9.14994324 11.22664917 9.90926147 11.22845459 10.69158936 C11.2328733 13.21368666 11.22993506 15.73571443 11.2265625 18.2578125 C11.22723553 20.00276706 11.22820555 21.74772154 11.22946167 23.49267578 C11.23093867 27.15463145 11.22878403 30.81656278 11.22412109 34.47851562 C11.2184238 39.18325742 11.2217028 43.88794218 11.22769356 48.59268188 C11.23129912 52.19735141 11.23016061 55.80200732 11.22756577 59.40667725 C11.22689648 61.14190681 11.22772496 62.87713759 11.23004532 64.61236572 C11.23257177 67.03327737 11.22873138 69.45409536 11.22314453 71.875 C11.22516876 72.59919128 11.22719299 73.32338257 11.22927856 74.06951904 C11.20801266 79.01854984 11.20801266 79.01854984 10.09375 80.1328125 C7.92894203 80.2317419 5.76081215 80.2625235 3.59375 80.2578125 C2.4078125 80.26039063 1.221875 80.26296875 0 80.265625 C-2.90625 80.1328125 -2.90625 80.1328125 -3.90625 79.1328125 C-4.00654857 76.70424215 -4.04243425 74.30409637 -4.03564453 71.875 C-4.03739685 71.11568176 -4.03914917 70.35636353 -4.04095459 69.57403564 C-4.0453733 67.05193834 -4.04243506 64.52991057 -4.0390625 62.0078125 C-4.03973553 60.26285794 -4.04070555 58.51790346 -4.04196167 56.77294922 C-4.04343867 53.11099355 -4.04128403 49.44906222 -4.03662109 45.78710938 C-4.0309238 41.08236758 -4.0342028 36.37768282 -4.04019356 31.67294312 C-4.04379912 28.06827359 -4.04266061 24.46361768 -4.04006577 20.85894775 C-4.03939648 19.12371819 -4.04022496 17.38848741 -4.04254532 15.65325928 C-4.04507177 13.23234763 -4.04123138 10.81152964 -4.03564453 8.390625 C-4.03766876 7.66643372 -4.03969299 6.94224243 -4.04177856 6.19610596 C-4.0159426 0.18352426 -4.0159426 0.18352426 0 0 Z " fill="#FFFFFF" transform="translate(1046.90625,543.8671875)"/>
<path d="M0 0 C1.65322266 0.01740234 1.65322266 0.01740234 3.33984375 0.03515625 C4.99693359 0.04869141 4.99693359 0.04869141 6.6875 0.0625 C7.54214844 0.07410156 8.39679687 0.08570313 9.27734375 0.09765625 C9.93734375 1.74765625 10.59734375 3.39765625 11.27734375 5.09765625 C11.89609375 4.45828125 12.51484375 3.81890625 13.15234375 3.16015625 C16.54047257 -0.12832172 18.6429573 -0.06199287 23.27734375 -0.08984375 C24.34984375 -0.10402344 25.42234375 -0.11820313 26.52734375 -0.1328125 C29.27734375 0.09765625 29.27734375 0.09765625 31.27734375 2.09765625 C31.32421875 4.12109375 31.32421875 4.12109375 31.02734375 6.47265625 C30.9396875 7.24351562 30.85203125 8.014375 30.76171875 8.80859375 C30.26069489 11.17633555 29.45081831 12.99117323 28.27734375 15.09765625 C27.69726562 15.06285156 27.1171875 15.02804687 26.51953125 14.9921875 C21.33003488 14.81235347 17.71287617 15.06851216 13.27734375 18.09765625 C10.58715126 21.84284889 10.9281281 26.15446697 10.86328125 30.58203125 C10.8439151 31.39762512 10.82454895 32.21321899 10.80459595 33.05352783 C10.744948 35.65146517 10.69847433 38.24944718 10.65234375 40.84765625 C10.61415033 42.61199819 10.5750978 44.37632176 10.53515625 46.140625 C10.4392587 50.45948571 10.35517328 54.77843369 10.27734375 59.09765625 C5.65734375 59.09765625 1.03734375 59.09765625 -3.72265625 59.09765625 C-3.74521174 51.55267036 -3.76357394 44.00769694 -3.77446842 36.46268559 C-3.77969614 32.9595674 -3.78679175 29.4564734 -3.7980957 25.95336914 C-3.81099831 21.92984784 -3.81588537 17.90635211 -3.8203125 13.8828125 C-3.82805443 11.98753563 -3.82805443 11.98753563 -3.83595276 10.05397034 C-3.83602829 8.89284225 -3.83610382 7.73171417 -3.83618164 6.53540039 C-3.83951256 4.99318565 -3.83951256 4.99318565 -3.84291077 3.41981506 C-3.66824467 0.04694866 -3.4082186 0.122246 0 0 Z " fill="#FFFFFF" transform="translate(629.72265625,564.90234375)"/>
<path d="M0 0 C1.1859375 0.00257813 2.371875 0.00515625 3.59375 0.0078125 C4.7796875 0.00523437 5.965625 0.00265625 7.1875 0 C10.09375 0.1328125 10.09375 0.1328125 11.09375 1.1328125 C11.19268778 2.90727259 11.22174092 4.68567501 11.22314453 6.46289062 C11.22629669 7.60077026 11.22944885 8.7386499 11.23269653 9.91101074 C11.2306723 11.14951782 11.22864807 12.3880249 11.2265625 13.6640625 C11.22751923 14.92545044 11.22847595 16.18683838 11.22946167 17.4864502 C11.23014375 20.15978388 11.22878529 22.83302687 11.22412109 25.50634766 C11.21842381 28.93987941 11.22170301 32.373333 11.22769356 35.80686188 C11.23216762 39.07176493 11.22903883 42.33665843 11.2265625 45.6015625 C11.22858673 46.84006958 11.23061096 48.07857666 11.23269653 49.35461426 C11.22954437 50.4924939 11.22639221 51.63037354 11.22314453 52.80273438 C11.22195114 54.31377747 11.22195114 54.31377747 11.22073364 55.85534668 C11.09375 58.1328125 11.09375 58.1328125 10.09375 59.1328125 C7.92894203 59.2317419 5.76081215 59.2625235 3.59375 59.2578125 C2.4078125 59.26039063 1.221875 59.26296875 0 59.265625 C-2.90625 59.1328125 -2.90625 59.1328125 -3.90625 58.1328125 C-4.00518778 56.35835241 -4.03424092 54.57994999 -4.03564453 52.80273438 C-4.03879669 51.66485474 -4.04194885 50.5269751 -4.04519653 49.35461426 C-4.0431723 48.11610718 -4.04114807 46.8776001 -4.0390625 45.6015625 C-4.04001923 44.34017456 -4.04097595 43.07878662 -4.04196167 41.7791748 C-4.04264375 39.10584112 -4.04128529 36.43259813 -4.03662109 33.75927734 C-4.03092381 30.32574559 -4.03420301 26.892292 -4.04019356 23.45876312 C-4.04466762 20.19386007 -4.04153883 16.92896657 -4.0390625 13.6640625 C-4.04108673 12.42555542 -4.04311096 11.18704834 -4.04519653 9.91101074 C-4.04204437 8.7731311 -4.03889221 7.63525146 -4.03564453 6.46289062 C-4.03484894 5.45552856 -4.03405334 4.4481665 -4.03323364 3.41027832 C-3.84163727 -0.02602397 -3.49543239 0.1597375 0 0 Z " fill="#FFFFFF" transform="translate(425.90625,564.8671875)"/>
<path d="M0 0 C4.29 0 8.58 0 13 0 C13 19.47 13 38.94 13 59 C8.71 59 4.42 59 0 59 C-1.7182309 57.2817691 -1.12754321 55.01402251 -1.12939453 52.66992188 C-1.13254669 51.53204224 -1.13569885 50.3941626 -1.13894653 49.22180176 C-1.1369223 47.98329468 -1.13489807 46.7447876 -1.1328125 45.46875 C-1.13376923 44.20736206 -1.13472595 42.94597412 -1.13571167 41.6463623 C-1.13639375 38.97302862 -1.13503529 36.29978563 -1.13037109 33.62646484 C-1.12467381 30.19293309 -1.12795301 26.7594795 -1.13394356 23.32595062 C-1.13841762 20.06104757 -1.13528883 16.79615407 -1.1328125 13.53125 C-1.13483673 12.29274292 -1.13686096 11.05423584 -1.13894653 9.77819824 C-1.13579437 8.6403186 -1.13264221 7.50243896 -1.12939453 6.33007812 C-1.12859894 5.32271606 -1.12780334 4.315354 -1.12698364 3.27746582 C-1 1 -1 1 0 0 Z " fill="#FFFFFF" transform="translate(725,565)"/>
<path d="M0 0 C3.85987396 2.00141613 6.99446399 4.0944825 9 8 C10.52289647 14.0679751 10.24527136 18.48303869 7 24 C3.36590352 27.45239166 0.72320182 28.86994703 -4.3125 29.25 C-9.39792403 28.90522549 -12.48643296 27.30903095 -16.3125 24 C-19.32637075 20.42800504 -19.34292111 16.8253957 -19.27734375 12.3515625 C-18.80448074 8.34221694 -17.45410267 6.22908247 -15 3 C-10.35232347 -0.35065052 -5.56292669 -0.90721564 0 0 Z " fill="#FFFFFF" transform="translate(677,365)"/>
<path d="M0 0 C2.31495619 1.80855953 2.84331938 3.0341334 3.30859375 5.90234375 C3.52158536 9.3682982 3.31232038 11.45683412 1.5625 14.5 C-2.24956737 16.73145407 -5.69726459 16.90002172 -10 16 C-13.35352755 13.30081929 -13.90377072 11.68563364 -14.5 7.4375 C-13.9257958 3.48984615 -13.11700276 2.38359035 -10 0 C-6.73414808 -1.63292596 -3.41712958 -0.88048738 0 0 Z " fill="#FFFFFF" transform="translate(737,542)"/>
<path d="M0 0 C2.31495619 1.80855953 2.84331938 3.0341334 3.30859375 5.90234375 C3.52158536 9.3682982 3.31232038 11.45683412 1.5625 14.5 C-2.24572891 16.72920717 -5.70134365 16.90705593 -10 16 C-13.1139376 13.41771029 -13.88506448 11.93864009 -14.375 7.9375 C-13.90036817 4.21955064 -13.32905407 2.07346675 -10.375 -0.3125 C-6.77245792 -1.35534113 -3.58878258 -1.02863195 0 0 Z " fill="#FFFFFF" transform="translate(435,542)"/>
</svg>
