<svg width="192" height="191" viewBox="0 0 192 191" fill="none" xmlns="http://www.w3.org/2000/svg">
<path d="M134.939 133.7L127.578 147.542L163.62 141.649C156.346 138.001 146.5 135.394 134.939 133.7ZM42.0941 136.718C25.4007 141.12 14.825 148.334 14.825 159.05C14.8319 161.356 15.3361 163.635 16.3033 165.729L74.1477 156.274L42.0941 136.718ZM175.819 152.8L95.3124 165.922L116.544 190.076C151.409 186.953 177.175 175.816 177.175 159.05C177.175 156.815 176.694 154.737 175.819 152.8ZM81.7094 168.187L27.3126 177.078C41.6911 185.984 67.0692 191 96 191C97.7534 191 99.4666 190.95 101.193 190.914L81.7094 168.187Z" fill="white"/>
<path d="M96.0038 0C64.8708 0 39.3265 25.466 39.3265 56.5284C39.3265 68.4697 43.1216 79.5935 49.5297 88.7405L86.2666 152.248L86.4233 152.452C87.873 154.345 89.2883 155.839 90.95 156.937C92.6117 158.037 94.6745 158.694 96.6991 158.492C100.744 158.087 103.222 155.23 105.573 152.044L105.699 151.879L146.256 82.8501L146.279 82.8061C147.23 81.0871 147.933 79.3376 148.529 77.6339C151.262 70.9329 152.67 63.7653 152.674 56.5284C152.674 25.466 127.137 0 96.0038 0ZM96.0038 32.556C109.509 32.556 120.051 43.0781 120.051 56.5264C120.051 69.9786 109.509 80.4969 96.0038 80.4969C82.4963 80.4969 71.9493 69.9767 71.9493 56.5264C71.9493 43.08 82.4982 32.556 96.0038 32.556Z" fill="white"/>
</svg>
