<?xml version="1.0" encoding="UTF-8"?>
<svg id="Capa_1" xmlns="http://www.w3.org/2000/svg" version="1.1" viewBox="0 0 248.95 239.45">
  <!-- Generator: Adobe Illustrator 29.8.2, SVG Export Plug-In . SVG Version: 2.1.1 Build 3)  -->
  <defs>
    <style>
      .st0 {
        fill: none;
        stroke: #161616;
        stroke-linecap: round;
        stroke-linejoin: round;
        stroke-width: 15px;
      }
    </style>
  </defs>
  <g id="Capa_2">
    <path class="st0" d="M223.91,141.22l3.94,1.94c13.92,7.03,14.09,26.85.29,34.12l-94.85,49.95c-5.6,2.95-12.29,2.95-17.89,0l-95.16-50.11c-13.74-7.24-13.65-26.94.16-34.05h0"/>
  </g>
  <g id="Capa_21">
    <path class="st0" d="M221.74,100.19l6.67,3.6c13.92,7.03,14.09,26.85.29,34.12l-94.85,49.95c-5.6,2.95-12.29,2.95-17.89,0l-95.16-50.11c-13.74-7.24-13.65-26.94.16-34.05h0"/>
  </g>
  <g id="Capa_22">
    <path class="st0" d="M20.97,60.48L114.89,12.13c5.47-2.81,11.95-2.84,17.44-.07l96.08,48.51c13.92,7.03,14.09,26.85.29,34.12l-94.85,49.95c-5.6,2.95-12.29,2.95-17.89,0L20.81,94.53c-13.74-7.24-13.65-26.94.16-34.05Z"/>
  </g>
  <line class="st0" x1="28.02" y1="100.19" x2="20.96" y2="103.7"/>
  <line class="st0" x1="24.81" y1="140.91" x2="20.4" y2="143.07"/>
</svg>