<?xml version="1.0" encoding="UTF-8" standalone="no"?>
<svg xmlns="http://www.w3.org/2000/svg" xml:space="preserve" id="Capa_2" width="40" height="40" viewBox="0 0 40 40"><circle id="path3" cx="20" cy="20" r="19.948" style="fill:#f1f2f5"/><g id="g6" transform="translate(-4.282 -4.09)scale(1.20976)"><path id="path4" d="m22.08 22.075-3.635 1.823c-1.999 1.002-3.667 1.821-3.706 1.82a.7.7 0 0 1-.203-.058v0a.425.425 0 0 1-.241-.45c.014-.07.836-1.74 1.826-3.711l1.8-3.583z" style="fill:#000;fill-opacity:1;stroke:#000;stroke-width:.688;stroke-linecap:round;stroke-linejoin:round;stroke-dasharray:none;stroke-opacity:1"/><path id="path6" d="m18.064 17.751 3.635-1.822c1.999-1.003 3.667-1.822 3.707-1.821.04 0 .13.027.203.059v0a.425.425 0 0 1 .24.449c-.014.07-.835 1.741-1.825 3.712l-1.8 3.583z" style="fill:none;fill-opacity:1;stroke:#000;stroke-width:.688;stroke-linecap:round;stroke-linejoin:round;stroke-dasharray:none;stroke-opacity:1"/></g></svg>
