<?xml version="1.0" encoding="UTF-8" standalone="no"?>
<svg xmlns="http://www.w3.org/2000/svg" id="Capa_1" viewBox="0 0 25 25"><defs id="defs1"><style id="style1">.st1{fill:#173f6f}</style></defs><g id="g2" transform="translate(.001)"><path id="path1" d="M12.5 25C5.6 25 0 19.4 0 12.5S5.6 0 12.5 0" class="st1"/><path id="path1-4" d="M12.498 25c6.9 0 12.5-5.6 12.5-12.5S19.398 0 12.498 0" class="st1" style="fill:#3da93d;fill-opacity:1"/></g><path id="path2" d="M17.85 18.6V6.2c0-.4-.3-.7-.7-.7h-9.3c-.4 0-.7.3-.7.7v12.5h-.6q-.3 0-.3.3v.5h12.5V19c0-.2-.096-.374-.296-.374-.18-.024-.43-.018-.604-.026m-8-11q0-.3.3-.3h1.1q.3 0 .3.3v1.1q0 .3-.3.3h-1.1q-.3 0-.3-.3Zm0 2.6q0-.3.3-.3h1.1q.3 0 .3.3v1.1q0 .3-.3.3h-1.1q-.3 0-.3-.3zm1.4 4h-1.1q-.3 0-.3-.3v-1.1q0-.3.3-.3h1.1q.3 0 .3.3v1.1q0 .3-.3.3m2.1 4.4h-1.8v-2.3q0-.3.3-.3h1.1q.3 0 .3.3v2.3zm1.8-4.7q0 .3-.3.3h-1.1q-.3 0-.3-.3v-1.1q0-.3.3-.3h1.1q.3 0 .3.3zm0-2.6q0 .3-.3.3h-1.1q-.3 0-.3-.3v-1.1q0-.3.3-.3h1.1q.3 0 .3.3zm0-2.6q0 .3-.3.3h-1.1q-.3 0-.3-.3V7.6q0-.3.3-.3h1.1q.3 0 .3.3z" style="fill:#fff"/></svg>
