<?xml version="1.0" encoding="UTF-8"?>
<svg xmlns="http://www.w3.org/2000/svg" id="Capa_2" viewBox="0 0 25 20"><defs><style>.st1{isolation:isolate}.st2{fill:#0188c5}</style></defs><g id="Capa_2-2"><g id="Capa_1-2"><path d="M17.5 0c.3.2.7.2 1 .4.5.3 1.3 1.3 1.3 2v8.7h-3.2c-.1 0-.9.4-1 .6-.3.3-.5 1.2-.7 1.3-.3.2-.9 0-1.2.5-.5.9.2 1.3.2 2 0 .6-.3 1.5-.1 2.1H2.3s-.7-.2-.8-.3c-.8-.4-1.2-1-1.5-1.8V2C.5 1.1 1 .2 2.3.1h14.8zh.1Z" class="st2"/><path d="M14.7 20c-.2-.2-.3-.3-.3-.6v-3.2c0-.3.3-.8.2-1.1 0-.1-.6-.2-.5-1 .1-.9.9-.2 1.2-.4.4-.3.2-1.8 1.5-2 1.7-.2 3.9.1 5.7 0 .8 0 1.1 1.9 1.3 2s1.1-.5 1.3.3v.5c0 .3-.6.4-.6.4s.3 1.2.3 1.4v3.1c0 .1-.2.2-.3.3h-1.2c-.4-.4-.3-.8-.4-1.3h-6.4c0 .5 0 1-.4 1.3h-1.2Zm1-4.9h7.6c.2 0 .2-.5.1-.6 0-.2-.7-1.8-.8-2-.2-.3-.4-.4-.8-.4-1.1-.1-3.3-.1-4.4 0-.4 0-.5 0-.8.4-.2.2-.9 1.9-.9 2.2zm-.1 1.2c-.2 0-.2 1.3 0 1.3h1.8c.2 0 .2-1.3 0-1.3zm5.9 0c0 .2 0 1.3.2 1.3h1.8c.2 0 .2-1.3 0-1.3z" class="st2"/></g><g id="uuid-00ff5478-d94a-49de-a9d5-208b4e7ceb82" class="st1"><path d="M11.4 10.4c0 .5 0 .9-.2 1.3-.2.5-.5.9-1 1.1-.5.3-1 .4-1.6.4s-1.2-.1-1.6-.4-.8-.7-1-1.2c-.1-.4-.2-.8-.2-1.2V6.7c0-.4.1-.8.4-1.2s.6-.6 1-.8.9-.3 1.4-.3 1 0 1.4.3c.4.2.7.4 1 .8q.3.45.3 1.2v.4c0 .1 0 0-.1 0H9.7c-.1 0 0 0 0-.1 0-.4 0-.6-.3-.8-.2-.2-.4-.3-.7-.3s-.6 0-.7.3-.3.4-.3.7v1.2c.3-.3.8-.4 1.3-.4s.9.1 1.3.3.7.6.9 1 .3.8.3 1.4Zm-1.7 0c0-.3 0-.6-.2-.8-.2-.3-.5-.5-.9-.5s-.8.2-.9.5c-.1.2-.2.5-.2.8s0 .5.2.8c.2.4.5.5.9.5s.7-.2.9-.5c.1-.2.2-.5.2-.8" class="st1" style="fill:#fff"/></g></g></svg>