<?xml version="1.0" encoding="UTF-8"?>
<svg xmlns="http://www.w3.org/2000/svg" id="Capa_2" viewBox="0 0 25 20"><defs><style>.st1{isolation:isolate}.st2{fill:#0188c5}</style></defs><g id="Capa_2-2"><g id="Capa_1-2"><path d="M17.5 0c.3.2.7.2 1 .4.5.3 1.3 1.3 1.3 2v8.7h-3.2c-.1 0-.9.4-1 .6-.3.3-.5 1.2-.7 1.3-.3.2-.9 0-1.2.5-.5.9.2 1.3.2 2 0 .6-.3 1.5-.1 2.1H2.3s-.7-.2-.8-.3c-.8-.4-1.2-1-1.5-1.8V2C.5 1.1 1 .2 2.3.1h14.8zh.1Z" class="st2"/><path d="M14.7 20c-.2-.2-.3-.3-.3-.6v-3.2c0-.3.3-.8.2-1.1 0-.1-.6-.2-.5-1 .1-.9.9-.2 1.2-.4.4-.3.2-1.8 1.5-2 1.7-.2 3.9.1 5.7 0 .8 0 1.1 1.9 1.3 2s1.1-.5 1.3.3v.5c0 .3-.6.4-.6.4s.3 1.2.3 1.4v3.1c0 .1-.2.2-.3.3h-1.2c-.4-.4-.3-.8-.4-1.3h-6.4c0 .5 0 1-.4 1.3h-1.2Zm1-4.9h7.6c.2 0 .2-.5.1-.6 0-.2-.7-1.8-.8-2-.2-.3-.4-.4-.8-.4-1.1-.1-3.3-.1-4.4 0-.4 0-.5 0-.8.4-.2.2-.9 1.9-.9 2.2zm-.1 1.2c-.2 0-.2 1.3 0 1.3h1.8c.2 0 .2-1.3 0-1.3zm5.9 0c0 .2 0 1.3.2 1.3h1.8c.2 0 .2-1.3 0-1.3z" class="st2"/></g><g id="uuid-8e2bded9-fe2a-4438-bff2-0c744e152fdc" class="st1"><path d="M11.4 10.4c0 .4 0 .8-.2 1.1-.2.5-.5.9-1 1.3-.5.3-1 .5-1.7.5s-1.2-.2-1.6-.5c-.5-.3-.8-.7-1-1.2 0-.2-.1-.4-.2-.7 0-.1 0-.2.1-.2h1.5s.1 0 .2.1v.1c0 .2.2.4.4.5s.4.2.6.2.4 0 .6-.2.3-.3.4-.5c0-.2.1-.4.1-.6s0-.5-.1-.6c0-.2-.2-.4-.3-.5S8.8 9 8.6 9s-.4 0-.6.2c-.2.1-.3.2-.4.4 0 0 0 .1-.2.1H5.8V4.5c0-.1 0 0 .1 0h5.2v1.4c0 .1 0 0-.1 0H7.6v1.8c.4-.2.8-.4 1.3-.4s1.1.1 1.5.4q.6.45.9 1.2c.1.4.2.8.2 1.2Z" class="st1" style="fill:#fff"/></g></g></svg>